<?xml version="1.0" encoding="utf-8"?>
<svg width="1944px" height="338px" viewBox="0 0 1944 338" version="1.1" xmlns:xlink="http://www.w3.org/1999/xlink" xmlns="http://www.w3.org/2000/svg">
  <defs>
    <linearGradient gradientUnits="objectBoundingBox" x1="0" y1="0.5" x2="1" y2="0.5" id="gradient_1">
      <stop offset="0%" stop-color="#7576AC" />
      <stop offset="100%" stop-color="#07BBBC" />
    </linearGradient>
    <filter filterUnits="userSpaceOnUse" color-interpolation-filters="sRGB" id="filter_1">
      <feFlood flood-opacity="0" result="BackgroundImageFix" />
      <feColorMatrix in="SourceAlpha" type="matrix" values="0 0 0 0 0 0 0 0 0 0 0 0 0 0 0 0 0 0 128 0" />
      <feOffset dx="0" dy="7" />
      <feGaussianBlur stdDeviation="0" />
      <feColorMatrix type="matrix" values="0 0 0 0 0.02745098 0 0 0 0 0.73333335 0 0 0 0 0.7372549 0 0 0 1 0" />
      <feBlend mode="normal" in2="BackgroundImageFix" result="effect0_dropShadow" />
      <feColorMatrix in="SourceAlpha" type="matrix" values="0 0 0 0 0 0 0 0 0 0 0 0 0 0 0 0 0 0 128 0" />
      <feOffset dx="0" dy="15" />
      <feGaussianBlur stdDeviation="2" />
      <feColorMatrix type="matrix" values="0 0 0 0 0.39215687 0 0 0 0 0.39215687 0 0 0 0 0.39215687 0 0 0 0.49803922 0" />
      <feBlend mode="normal" in2="effect0_dropShadow" result="effect1_dropShadow" />
      <feColorMatrix in="SourceAlpha" type="matrix" values="0 0 0 0 0 0 0 0 0 0 0 0 0 0 0 0 0 0 128 0" />
      <feOffset dx="0" dy="0" />
      <feGaussianBlur stdDeviation="25" />
      <feColorMatrix type="matrix" values="0 0 0 0 0 0 0 0 0 0.99607843 0 0 0 0 1 0 0 0 1 0" />
      <feBlend mode="normal" in2="effect1_dropShadow" result="effect2_dropShadow" />
      <feBlend mode="normal" in="SourceGraphic" in2="effect2_dropShadow" result="shape" />
    </filter>
    <path d="M0 0L635 0L635 123L0 123L0 0Z" id="path_1" />
    <path d="M0 0L474 0L474 123L0 123L0 0Z" id="path_2" />
    <clipPath id="clip_1">
      <use xlink:href="#path_1" clip-rule="evenodd" fill-rule="evenodd" />
    </clipPath>
    <clipPath id="clip_2">
      <use xlink:href="#path_2" clip-rule="evenodd" fill-rule="evenodd" />
    </clipPath>
  </defs>
  <g id="Welcome-to" clip-path="url(#clip_1)" transform="translate(0 75)">
    <g fill="url(#gradient_1)" stroke="none" id="Welcome-to">
      <path d="M114.1 26.8L91.2 96.8L73.8 96.8L58.4 49.4L42.5 96.8L25.2 96.8L2.2 26.8L19 26.8L34.8 76L51.3 26.8L66.3 26.8L82.3 76.4L98.6 26.8L114.1 26.8ZM170.7 70.1Q170.7 70.4 170.4 74.3L129.7 74.3Q130.8 79.3 134.9 82.2Q139 85.1 145.1 85.1Q149.3 85.1 152.55 83.85Q155.8 82.6 158.6 79.9L166.9 88.9Q159.3 97.6 144.7 97.6Q135.6 97.6 128.6 94.05Q121.6 90.5 117.8 84.2Q114 77.9 114 69.9Q114 62 117.75 55.65Q121.5 49.3 128.05 45.75Q134.6 42.2 142.7 42.2Q150.6 42.2 157 45.6Q163.4 49 167.05 55.35Q170.7 61.7 170.7 70.1ZM142.8 54Q137.5 54 133.9 57Q130.3 60 129.5 65.2L156 65.2Q155.2 60.1 151.6 57.05Q148 54 142.8 54ZM181.1 22.6L196.7 22.6L196.7 96.8L181.1 96.8L181.1 22.6ZM237.2 97.6Q228.6 97.6 221.75 94.05Q214.9 90.5 211.05 84.2Q207.2 77.9 207.2 69.9Q207.2 61.9 211.05 55.6Q214.9 49.3 221.75 45.75Q228.6 42.2 237.2 42.2Q245.7 42.2 252.05 45.75Q258.4 49.3 261.3 55.9L249.2 62.4Q245 55 237.1 55Q231 55 227 59Q223 63 223 69.9Q223 76.8 227 80.8Q231 84.8 237.1 84.8Q245.1 84.8 249.2 77.4L261.3 84Q258.4 90.4 252.05 94Q245.7 97.6 237.2 97.6ZM295.2 97.6Q286.7 97.6 279.95 94.05Q273.2 90.5 269.4 84.2Q265.6 77.9 265.6 69.9Q265.6 61.9 269.4 55.6Q273.2 49.3 279.95 45.75Q286.7 42.2 295.2 42.2Q303.7 42.2 310.4 45.75Q317.1 49.3 320.9 55.6Q324.7 61.9 324.7 69.9Q324.7 77.9 320.9 84.2Q317.1 90.5 310.4 94.05Q303.7 97.6 295.2 97.6ZM295.2 84.8Q301.2 84.8 305.05 80.75Q308.9 76.7 308.9 69.9Q308.9 63.1 305.05 59.05Q301.2 55 295.2 55Q289.2 55 285.3 59.05Q281.4 63.1 281.4 69.9Q281.4 76.7 285.3 80.75Q289.2 84.8 295.2 84.8ZM404 42.2Q414.1 42.2 420.05 48.15Q426 54.1 426 66L426 96.8L410.4 96.8L410.4 68.4Q410.4 62 407.75 58.85Q405.1 55.7 400.2 55.7Q394.7 55.7 391.5 59.25Q388.3 62.8 388.3 69.8L388.3 96.8L372.7 96.8L372.7 68.4Q372.7 55.7 362.5 55.7Q357.1 55.7 353.9 59.25Q350.7 62.8 350.7 69.8L350.7 96.8L335.1 96.8L335.1 43L350 43L350 49.2Q353 45.8 357.35 44Q361.7 42.2 366.9 42.2Q372.6 42.2 377.2 44.45Q381.8 46.7 384.6 51Q387.9 46.8 392.95 44.5Q398 42.2 404 42.2ZM493.3 70.1Q493.3 70.4 493 74.3L452.3 74.3Q453.4 79.3 457.5 82.2Q461.6 85.1 467.7 85.1Q471.9 85.1 475.15 83.85Q478.4 82.6 481.2 79.9L489.5 88.9Q481.9 97.6 467.3 97.6Q458.2 97.6 451.2 94.05Q444.2 90.5 440.4 84.2Q436.6 77.9 436.6 69.9Q436.6 62 440.35 55.65Q444.1 49.3 450.65 45.75Q457.2 42.2 465.3 42.2Q473.2 42.2 479.6 45.6Q486 49 489.65 55.35Q493.3 61.7 493.3 70.1ZM465.4 54Q460.1 54 456.5 57Q452.9 60 452.1 65.2L478.6 65.2Q477.8 60.1 474.2 57.05Q470.6 54 465.4 54ZM566.7 94.2Q564.4 95.9 561.05 96.75Q557.7 97.6 554 97.6Q544.4 97.6 539.15 92.7Q533.9 87.8 533.9 78.3L533.9 56.2L525.6 56.2L525.6 44.2L533.9 44.2L533.9 31.1L549.5 31.1L549.5 44.2L562.9 44.2L562.9 56.2L549.5 56.2L549.5 78.1Q549.5 81.5 551.25 83.35Q553 85.2 556.2 85.2Q559.9 85.2 562.5 83.2L566.7 94.2ZM599.4 97.6Q590.9 97.6 584.15 94.05Q577.4 90.5 573.6 84.2Q569.8 77.9 569.8 69.9Q569.8 61.9 573.6 55.6Q577.4 49.3 584.15 45.75Q590.9 42.2 599.4 42.2Q607.9 42.2 614.6 45.75Q621.3 49.3 625.1 55.6Q628.9 61.9 628.9 69.9Q628.9 77.9 625.1 84.2Q621.3 90.5 614.6 94.05Q607.9 97.6 599.4 97.6ZM599.4 84.8Q605.4 84.8 609.25 80.75Q613.1 76.7 613.1 69.9Q613.1 63.1 609.25 59.05Q605.4 55 599.4 55Q593.4 55 589.5 59.05Q585.6 63.1 585.6 69.9Q585.6 76.7 589.5 80.75Q593.4 84.8 599.4 84.8Z" />
    </g>
  </g>
  <g id="LIMATV" transform="translate(676 75)">
    <g stroke="#07BBBC" stroke-width="1" id="LIGMATV" fill="#7576AC" filter="url(#filter_1)">
      <path d="M27.84 92.48L72.48 92.48L72.48 101.92L0 101.92L0 2.71999L9.44 2.71999L9.44 92.48L18.4 92.48L18.4 2.71999L27.84 2.71999L27.84 92.48ZM0 120L0 110.56L72.48 110.56L72.48 120L0 120ZM95.84 120L86.4 120L86.4 2.71999L95.84 2.71999L95.84 120ZM113.92 120L104.48 120L104.48 2.71999L113.92 2.71999L113.92 120ZM235.36 57.12L235.36 65.12L235.36 67.04L235.36 97.44L234.88 97.44L235.04 97.6L235.36 97.44Q231.2 102.72 225.92 106.88L225.92 97.44L225.92 94.08L225.92 67.04L192.16 67.04L192.16 57.12L235.36 57.12ZM218.56 89.44L218.4 89.44L218.4 100.8L218.4 108.32L218.4 112Q211.68 115.84 204 118Q196.32 120.16 187.84 120.16C179.52 120.16 171.707 118.613 164.4 115.52Q153.44 110.88 145.28 102.88Q137.12 94.88 132.4 84.24Q127.68 73.6 127.68 61.44Q127.68 49.28 132.4 38.56Q137.12 27.84 145.28 19.92Q153.44 12 164.4 7.35999Q175.36 2.71999 187.84 2.71999Q200.16 2.71999 210.96 7.19624Q221.76 11.6725 229.92 19.52L223.36 26.24Q216.48 19.68 207.44 15.92Q198.4 12.16 187.84 12.16Q177.28 12.16 168.08 16.0737Q158.88 19.9875 152 26.6962Q145.12 33.405 141.12 42.3512Q137.12 51.2975 137.12 61.52Q137.12 71.7425 141.12 80.6888Q145.12 89.635 152 96.3438Q158.88 103.052 168.08 106.886Q177.28 110.72 187.84 110.72Q199.2 110.72 209.28 106.08L209.28 96.64Q204.64 99.36 199.2 100.88Q193.76 102.4 187.84 102.4Q179.2 102.4 171.6 99.2Q164 96 158.24 90.4Q152.48 84.8 149.2 77.36Q145.92 69.92 145.92 61.44Q145.92 52.96 149.2 45.52Q152.48 38.08 158.24 32.48Q164 26.88 171.6 23.68Q179.2 20.48 187.84 20.48Q196.48 20.48 204.08 23.6Q211.68 26.72 217.44 32.32L210.88 39.04Q206.4 34.88 200.48 32.4Q194.56 29.92 187.84 29.92Q181.12 29.92 175.2 32.4Q169.28 34.88 164.88 39.12Q160.48 43.36 157.92 49.12Q155.36 54.88 155.36 61.44Q155.36 68 157.92 73.68Q160.48 79.36 164.88 83.68Q169.28 88 175.2 90.48Q181.12 92.96 187.84 92.96Q194.08 92.96 199.52 90.88Q204.96 88.8 209.28 85.12L209.28 84.48L192.16 84.48L192.16 74.56L209.28 74.56L218.4 74.56L218.4 84.48L218.4 87.84L218.4 89.28L218.56 89.44ZM262.88 62.24L262.88 48.16L314.24 105.28L307.84 112.32L272.32 72.64L272.32 120L262.88 120L262.88 95.2L262.88 62.24ZM307.84 71.84L370.72 2.71999L370.72 120L361.28 120L361.28 53.28L352.96 62.56L352.96 120L343.52 120L343.52 72.8L319.84 98.88L254.4 26.88L254.4 37.6L254.4 38.72L254.4 52.8L254.4 95.2L254.4 120L244.96 120L244.96 2.71999L307.84 71.84ZM361.28 39.36L361.28 26.88L314.08 78.72L319.84 84.96L361.28 39.36ZM418.56 120L407.52 120L420.48 97.28L502.08 97.28L515.2 120L503.68 120L496.48 106.72L485.12 106.72L492.48 120L481.6 120L474.4 106.72L426.08 106.56L418.56 120ZM396.32 120L386.24 120L396.64 99.68L450.08 2.71999L497.44 88.96L413.44 88.96L404.96 104.32L396.32 120ZM440.8 79.52L459.2 79.36L450.08 63.2L440.8 79.52ZM450.08 22.56L418.72 79.52L429.92 79.52L450.08 44L470.08 79.52L481.44 79.52L450.08 22.56ZM629.92 20.64L629.92 30.08L591.2 30.08L591.2 120L581.76 120L581.76 30.08L581.76 20.64L591.2 20.64L629.92 20.64ZM525.12 12.16L525.12 2.71999L563.84 2.71999L573.28 2.71999L581.76 2.71999L591.2 2.71999L629.92 2.71999L629.92 12.16L591.2 12.16L581.76 12.16L573.28 12.16L573.28 20.64L573.28 30.08L573.28 120L563.84 120L563.84 30.08L525.12 30.08L525.12 20.64L563.84 20.64L563.84 12.16L525.12 12.16ZM656.96 10.24L711.84 110.08L706.4 119.84L670.08 53.76L647.84 13.92L641.12 2.56L652.8 2.56L656.96 10.24ZM760 2.56L770.24 2.56L759.68 22.88L722.56 90.56L717.76 99.04L712.32 89.28L670.24 14.08L670.4 14.08L668.32 10.56L664 2.56L674.88 2.56L679.2 10.56L682.08 15.84L682.24 15.84L687.52 25.28L692.16 33.6L697.44 43.2L701.6 50.56L701.6 50.88L706.08 58.56L706.4 59.36L715.52 43.2L720.64 33.6L729.92 16.96L735.52 6.72L737.92 2.56L748.8 2.56L739.36 19.2L738.24 21.28L719.2 56L711.84 68.96L717.76 79.52L728.48 60L749.12 22.56L751.36 18.24L760 2.56Z" />
    </g>
  </g>
  <g id="Readme.md!" clip-path="url(#clip_2)" transform="translate(1470 75)">
    <g fill="url(#gradient_1)" stroke="none" id="Readme!">
      <path d="M52.9 96.8L39.4 77.3L38.6 77.3L24.5 77.3L24.5 96.8L8.3 96.8L8.3 26.8L38.6 26.8Q47.9 26.8 54.75 29.9Q61.6 33 65.3 38.7Q69 44.4 69 52.2Q69 60 65.25 65.65Q61.5 71.3 54.6 74.3L70.3 96.8L52.9 96.8ZM52.6 52.2Q52.6 46.3 48.8 43.15Q45 40 37.7 40L24.5 40L24.5 64.4L37.7 64.4Q45 64.4 48.8 61.2Q52.6 58 52.6 52.2ZM133.4 70.1Q133.4 70.4 133.1 74.3L92.4 74.3Q93.5 79.3 97.6 82.2Q101.7 85.1 107.8 85.1Q112 85.1 115.25 83.85Q118.5 82.6 121.3 79.9L129.6 88.9Q122 97.6 107.4 97.6Q98.3 97.6 91.3 94.05Q84.3 90.5 80.5 84.2Q76.7 77.9 76.7 69.9Q76.7 62 80.45 55.65Q84.2 49.3 90.75 45.75Q97.3 42.2 105.4 42.2Q113.3 42.2 119.7 45.6Q126.1 49 129.75 55.35Q133.4 61.7 133.4 70.1ZM105.5 54Q100.2 54 96.6 57Q93 60 92.2 65.2L118.7 65.2Q117.9 60.1 114.3 57.05Q110.7 54 105.5 54ZM164 42.2Q176.5 42.2 183.2 48.15Q189.9 54.1 189.9 66.1L189.9 96.8L175.3 96.8L175.3 90.1Q170.9 97.6 158.9 97.6Q152.7 97.6 148.15 95.5Q143.6 93.4 141.2 89.7Q138.8 86 138.8 81.3Q138.8 73.8 144.45 69.5Q150.1 65.2 161.9 65.2L174.3 65.2Q174.3 60.1 171.2 57.35Q168.1 54.6 161.9 54.6Q157.6 54.6 153.45 55.95Q149.3 57.3 146.4 59.6L140.8 48.7Q145.2 45.6 151.35 43.9Q157.5 42.2 164 42.2ZM162.8 87.1Q166.8 87.1 169.9 85.25Q173 83.4 174.3 79.8L174.3 74.3L163.6 74.3Q154 74.3 154 80.6Q154 83.6 156.35 85.35Q158.7 87.1 162.8 87.1ZM259.4 22.6L259.4 96.8L244.5 96.8L244.5 90.6Q238.7 97.6 227.7 97.6Q220.1 97.6 213.95 94.2Q207.8 90.8 204.3 84.5Q200.8 78.2 200.8 69.9Q200.8 61.6 204.3 55.3Q207.8 49 213.95 45.6Q220.1 42.2 227.7 42.2Q238 42.2 243.8 48.7L243.8 22.6L259.4 22.6ZM230.4 84.8Q236.3 84.8 240.2 80.75Q244.1 76.7 244.1 69.9Q244.1 63.1 240.2 59.05Q236.3 55 230.4 55Q224.4 55 220.5 59.05Q216.6 63.1 216.6 69.9Q216.6 76.7 220.5 80.75Q224.4 84.8 230.4 84.8ZM342.7 42.2Q352.8 42.2 358.75 48.15Q364.7 54.1 364.7 66L364.7 96.8L349.1 96.8L349.1 68.4Q349.1 62 346.45 58.85Q343.8 55.7 338.9 55.7Q333.4 55.7 330.2 59.25Q327 62.8 327 69.8L327 96.8L311.4 96.8L311.4 68.4Q311.4 55.7 301.2 55.7Q295.8 55.7 292.6 59.25Q289.4 62.8 289.4 69.8L289.4 96.8L273.8 96.8L273.8 43L288.7 43L288.7 49.2Q291.7 45.8 296.05 44Q300.4 42.2 305.6 42.2Q311.3 42.2 315.9 44.45Q320.5 46.7 323.3 51Q326.6 46.8 331.65 44.5Q336.7 42.2 342.7 42.2ZM432 70.1Q432 70.4 431.7 74.3L391 74.3Q392.1 79.3 396.2 82.2Q400.3 85.1 406.4 85.1Q410.6 85.1 413.85 83.85Q417.1 82.6 419.9 79.9L428.2 88.9Q420.6 97.6 406 97.6Q396.9 97.6 389.9 94.05Q382.9 90.5 379.1 84.2Q375.3 77.9 375.3 69.9Q375.3 62 379.05 55.65Q382.8 49.3 389.35 45.75Q395.9 42.2 404 42.2Q411.9 42.2 418.3 45.6Q424.7 49 428.35 55.35Q432 61.7 432 70.1ZM404.1 54Q398.8 54 395.2 57Q391.6 60 390.8 65.2L417.3 65.2Q416.5 60.1 412.9 57.05Q409.3 54 404.1 54ZM440.4 26.8L459 26.8L455.9 72.5L443.5 72.5L440.4 26.8ZM449.7 97.6Q445.6 97.6 442.85 94.95Q440.1 92.3 440.1 88.5Q440.1 84.7 442.8 82.15Q445.5 79.6 449.7 79.6Q453.9 79.6 456.6 82.15Q459.3 84.7 459.3 88.5Q459.3 92.3 456.55 94.95Q453.8 97.6 449.7 97.6Z" />
    </g>
  </g>
</svg>