<svg viewBox="0 0 330 30" xmlns="http://www.w3.org/2000/svg">

<linearGradient id="gr" x1="0%" y1="50%" x2="100%" y2="50%" > 
            <stop offset="0%" stop-color="#7576AC">
                <animate attributeName="stop-color" values="#7576AC; #07BBBC; #7576AC" dur="4s" repeatCount="indefinite"></animate>
            </stop>
            <stop offset="100%" stop-color="#07BBBC">
                <animate attributeName="stop-color" values="#07BBBC; #7576AC; #07BBBC" dur="4s" repeatCount="indefinite"></animate>
            </stop>
</linearGradient>

  <text x="10" y="20" font-family="Verdana" font-weight="bold" fill="url(#gr)">Welcome to</text>

    <svg x="122" y="4" width="115.536" height="17.64" viewBox="0 0 115.536 17.64" xmlns="http://www.w3.org/2000/svg">
      <g id="svgGroup" stroke-linecap="round" fill-rule="evenodd" font-size="9pt" stroke="#7576ac" stroke-width="0mm" fill="#7576ac" style="stroke:#7576ac;stroke-width:0.25mm;fill:#7576ac">
        <path d="M 32.76 13.008 L 32.784 13.032 L 32.76 13.032 L 32.76 14.736 L 32.76 15.864 L 32.76 16.416 Q 31.752 16.992 30.6 17.316 A 8.857 8.857 0 0 1 28.335 17.639 A 9.901 9.901 0 0 1 28.176 17.64 Q 26.304 17.64 24.66 16.944 Q 23.016 16.248 21.792 15.048 Q 20.568 13.848 19.86 12.252 Q 19.152 10.656 19.152 8.832 Q 19.152 7.008 19.86 5.4 Q 20.568 3.792 21.792 2.604 Q 23.016 1.416 24.66 0.72 Q 26.304 0.024 28.176 0.024 A 9.153 9.153 0 0 1 31.389 0.585 A 8.759 8.759 0 0 1 31.644 0.684 Q 33.264 1.344 34.488 2.52 L 33.504 3.528 Q 32.472 2.544 31.116 1.98 A 7.46 7.46 0 0 0 28.568 1.425 A 8.667 8.667 0 0 0 28.176 1.416 A 7.531 7.531 0 0 0 25.473 1.899 A 7.223 7.223 0 0 0 25.212 2.004 Q 23.832 2.592 22.8 3.6 Q 21.768 4.608 21.168 5.952 Q 20.568 7.296 20.568 8.832 Q 20.568 10.368 21.168 11.712 Q 21.768 13.056 22.8 14.064 Q 23.832 15.072 25.212 15.648 Q 26.592 16.224 28.176 16.224 Q 29.88 16.224 31.392 15.528 L 31.392 14.112 Q 30.696 14.52 29.88 14.748 Q 29.064 14.976 28.176 14.976 Q 26.88 14.976 25.74 14.496 Q 24.6 14.016 23.736 13.176 Q 22.872 12.336 22.38 11.22 Q 21.888 10.104 21.888 8.832 Q 21.888 7.56 22.38 6.444 Q 22.872 5.328 23.736 4.488 Q 24.6 3.648 25.74 3.168 Q 26.88 2.688 28.176 2.688 Q 29.472 2.688 30.612 3.156 Q 31.752 3.624 32.616 4.464 L 31.632 5.472 Q 30.96 4.848 30.072 4.476 Q 29.184 4.104 28.176 4.104 Q 27.168 4.104 26.28 4.476 Q 25.392 4.848 24.732 5.484 Q 24.072 6.12 23.688 6.984 Q 23.304 7.848 23.304 8.832 A 4.42 4.42 0 0 0 23.676 10.641 A 4.31 4.31 0 0 0 23.688 10.668 Q 24.072 11.52 24.732 12.168 Q 25.392 12.816 26.28 13.188 Q 27.168 13.56 28.176 13.56 A 4.974 4.974 0 0 0 29.565 13.37 A 4.581 4.581 0 0 0 29.928 13.248 Q 30.744 12.936 31.392 12.384 L 31.392 12.288 L 28.824 12.288 L 28.824 10.8 L 31.392 10.8 L 32.76 10.8 L 32.76 12.288 L 32.76 12.792 L 32.76 13.008 Z M 36.744 0.024 L 46.176 10.392 L 55.608 0.024 L 55.608 17.616 L 54.192 17.616 L 54.192 7.608 L 52.944 9 L 52.944 17.616 L 51.528 17.616 L 51.528 10.536 L 47.976 14.448 L 38.16 3.648 L 38.16 5.256 L 38.16 5.424 L 38.16 7.536 L 38.16 13.896 L 38.16 17.616 L 36.744 17.616 L 36.744 0.024 Z M 112.704 2.352 L 114 0 L 115.536 0 L 113.952 3.048 L 108.384 13.2 L 107.664 14.472 L 106.848 13.008 L 100.536 1.728 L 100.56 1.728 L 100.248 1.2 L 99.6 0 L 101.232 0 L 101.88 1.2 L 102.312 1.992 L 102.336 1.992 L 103.128 3.408 L 103.824 4.656 L 104.616 6.096 L 105.24 7.2 L 105.24 7.248 L 105.912 8.4 L 105.96 8.52 L 107.328 6.096 L 108.096 4.656 L 109.488 2.16 L 110.328 0.624 L 110.688 0 L 112.32 0 L 110.904 2.496 L 110.736 2.808 L 107.88 8.016 L 106.776 9.96 L 107.664 11.544 L 109.272 8.616 L 112.368 3 L 112.704 2.352 Z M 4.176 0.024 L 4.176 13.488 L 10.872 13.488 L 10.872 14.904 L 0 14.904 L 0 0.024 L 1.416 0.024 L 1.416 13.488 L 2.76 13.488 L 2.76 0.024 L 4.176 0.024 Z M 78.768 1.44 L 78.768 0.024 L 84.576 0.024 L 85.992 0.024 L 87.264 0.024 L 88.68 0.024 L 94.488 0.024 L 94.488 1.44 L 88.68 1.44 L 87.264 1.44 L 85.992 1.44 L 85.992 2.712 L 85.992 4.128 L 85.992 17.616 L 84.576 17.616 L 84.576 4.128 L 78.768 4.128 L 78.768 2.712 L 84.576 2.712 L 84.576 1.44 L 78.768 1.44 Z M 60.744 15.264 L 59.448 17.616 L 57.936 17.616 L 59.496 14.568 L 67.512 0.024 L 74.616 12.96 L 62.016 12.96 L 60.744 15.264 Z M 94.488 2.712 L 94.488 4.128 L 88.68 4.128 L 88.68 17.616 L 87.264 17.616 L 87.264 4.128 L 87.264 2.712 L 88.68 2.712 L 94.488 2.712 Z M 63.912 15.6 L 62.784 17.616 L 61.128 17.616 L 63.072 14.208 L 75.312 14.208 L 77.28 17.616 L 75.552 17.616 L 74.472 15.624 L 72.768 15.624 L 73.872 17.616 L 72.24 17.616 L 71.16 15.624 L 63.912 15.6 Z M 98.544 1.152 L 106.776 16.128 L 105.96 17.592 L 100.512 7.68 L 97.176 1.704 L 96.168 0 L 97.92 0 L 98.544 1.152 Z M 39.432 13.896 L 39.432 8.952 L 39.432 6.84 L 47.112 15.408 L 46.152 16.464 L 40.824 10.512 L 40.824 17.616 L 39.432 17.616 L 39.432 13.896 Z M 14.376 17.616 L 12.96 17.616 L 12.96 0.024 L 14.376 0.024 L 14.376 17.616 Z M 17.088 17.616 L 15.672 17.616 L 15.672 0.024 L 17.088 0.024 L 17.088 17.616 Z M 72.216 11.52 L 67.512 2.976 L 62.808 11.52 L 64.488 11.52 L 67.512 6.216 L 70.512 11.52 L 72.216 11.52 Z M 28.824 8.184 L 35.304 8.184 L 35.304 9.384 L 35.304 9.672 L 35.304 14.232 L 35.232 14.232 L 35.256 14.256 L 35.304 14.232 Q 34.68 15.024 33.888 15.648 L 33.888 14.232 L 33.888 13.728 L 33.888 9.672 L 28.824 9.672 L 28.824 8.184 Z M 10.872 17.616 L 0 17.616 L 0 16.2 L 10.872 16.2 L 10.872 17.616 Z M 47.976 12.36 L 54.192 5.52 L 54.192 3.648 L 47.112 11.424 L 47.976 12.36 Z M 67.512 9.096 L 66.12 11.52 L 68.88 11.52 L 67.512 9.096 Z" vector-effect="non-scaling-stroke"/></g></svg>
      
          <text x="240" y="20" font-family="Verdana" font-weight="bold" fill="url(#gr)">Readme!</text>

</svg>