<svg xmlns="http://www.w3.org/2000/svg" viewBox="0 0 1280 1280"><path fill="#fbfcfc" stroke="#fbfcfc" d="M440.5 105.185c-2.9.979-5.15 1.456-18 3.817-3.3.606-6.428 1.529-6.95 2.05-.523.521-1.991.948-3.264.948-1.272 0-3.095.427-4.05.949-.955.522-4.661 1.469-8.236 2.104-3.575.635-8.75 1.58-11.5 2.1s-8.153 1.291-12.006 1.713c-10.876 1.192-16.028 5.84-13.764 12.42.608 1.768 1.42 4.789 1.803 6.714.384 1.925 1.041 3.95 1.46 4.5.419.55 1.018 3.475 1.33 6.5.736 7.137 2.436 14.992 3.548 16.393.483.609 1.121 2.457 1.418 4.107.298 1.65 1.282 5.925 2.187 9.5.905 3.575 2.039 9.425 2.52 13 1.552 11.548 2.815 18.824 3.853 22.199.559 1.816 1.543 5.326 2.187 7.801.644 2.475 1.799 6.315 2.567 8.533.769 2.219 1.397 5.342 1.397 6.94 0 3.896 1.783 13.766 3.708 20.527 2.843 9.982 3.204 11.434 4.722 19 .827 4.125 1.711 10.453 1.963 14.063.387 5.531 2.799 15.003 5.333 20.937.982 2.302 3.276 12.812 4.255 19.5 1.517 10.368 3.098 18.818 3.701 19.795.32.517 1 2.575 1.511 4.573 2.954 11.554 4.052 17.578 4.671 25.632.381 4.95.98 9.46 1.332 10.021.351.562.934 3.037 1.295 5.5.361 2.464 1.073 4.906 1.583 5.429.509.522.926 1.991.926 3.264 0 1.272.412 3.095.915 4.05 1.546 2.934 3.925 14.365 4.524 21.736.312 3.85 1.284 9.475 2.16 12.5.875 3.025 1.807 6.85 2.071 8.5.263 1.65.748 3.675 1.077 4.5 1.454 3.645 3.43 13.111 4.197 20.113.459 4.187 1.093 8.462 1.409 9.5.316 1.038.834 3.411 1.15 5.275.316 1.863 1.007 4.196 1.536 5.184.528.988.961 3.15.961 4.803 0 1.654.45 3.285 1 3.625.55.34 1.016 1.829 1.035 3.309.02 1.48.679 3.816 1.465 5.191s1.445 4.048 1.465 5.94c.045 4.452 1.759 14.092 3.743 21.06a971.71 971.71 0 0 1 2.384 8.5c.45 1.65 1.514 5.335 2.363 8.188.85 2.853 1.545 7.888 1.545 11.188 0 5.86 2.156 17.631 3.96 21.624.497 1.1 1.121 3.35 1.387 5s1.226 5.925 2.134 9.5c.908 3.575 2.012 9.65 2.453 13.5.828 7.225 2.602 15.5 4.074 19 .463 1.1 1.118 3.35 1.456 5 .338 1.65 1.299 5.925 2.136 9.5.836 3.575 1.915 9.842 2.396 13.927.482 4.084 1.138 8.47 1.458 9.745.32 1.276.639 2.659.708 3.074.069.414 1.147 3.569 2.395 7.01s2.586 8.166 2.972 10.5c.387 2.334 1.065 4.935 1.508 5.78.442.844.922 4.444 1.066 8 .145 3.555.592 7.589.994 8.964s1.497 5.2 2.433 8.5c.936 3.3 2.045 6.9 2.465 8 1.537 4.034 3.176 13.238 4.007 22.5.469 5.225 1.592 12.2 2.496 15.5.904 3.3 1.87 7.35 2.147 9 .277 1.65.773 3.675 1.102 4.5 1.355 3.397 3.407 12.944 4.205 19.562.467 3.884 1.308 8.722 1.869 10.75.56 2.028.813 3.688.563 3.688s.024.894.608 1.986c.585 1.092 1.471 3.904 1.969 6.25.498 2.345 1.635 7.189 2.528 10.764.892 3.575 2.045 10.1 2.56 14.5.516 4.4 1.206 8.675 1.534 9.5.327.825.79 2.625 1.027 4 .237 1.375.82 3.4 1.296 4.5.476 1.1 1.414 4.025 2.083 6.5 1.712 6.327 3.974 13.104 5.258 15.75 2.074 4.278-.679 7.25-6.716 7.25-2.822 0-5.558.392-6.081.871-.522.479-3.343 1.137-6.267 1.461l-5.318.59-1.481-3.546c-.815-1.95-1.882-6.32-2.371-9.711-.49-3.391-1.312-7.965-1.829-10.165-.516-2.2-1.444-6.138-2.061-8.75-2.586-10.941-3.123-13.974-3.123-17.642 0-2.125-.675-5.479-1.5-7.454-.825-1.974-1.5-4.928-1.5-6.563 0-1.635-.45-3.251-1-3.591-.55-.34-1-2.137-1-3.994 0-1.857-.489-4.643-1.086-6.191-1.159-3.005-2.516-9.392-3.892-18.315-.812-5.269-2.146-10.971-4.109-17.571-.502-1.689-.913-4.247-.913-5.685 0-1.438-.515-3.881-1.145-5.429-1.092-2.685-1.938-6.707-3.748-17.815-.448-2.75-1.376-7.25-2.062-10-4.274-17.128-6.699-28.693-7.863-37.5-.4-3.025-1.082-6.064-1.516-6.753-.728-1.158-1.47-4.525-3.578-16.247-.89-4.944-2.754-12.79-4.175-17.571-.502-1.689-.913-4.574-.913-6.412 0-2.968-1.054-7.516-4.078-17.588-.507-1.689-.922-4.124-.922-5.412 0-2.086-1.246-7.154-4.078-16.588-.507-1.689-.922-4.697-.922-6.685 0-1.988-.515-4.881-1.145-6.429s-1.547-5.065-2.039-7.815c-.492-2.75-1.291-7.25-1.775-10-.875-4.969-2.38-11.196-4.128-17.071-.502-1.689-.913-4.756-.913-6.816 0-2.059-.537-4.727-1.193-5.929-.656-1.201-1.535-4.209-1.954-6.684-1.709-10.103-4.37-21.588-5.976-25.797-.483-1.263-.877-4.54-.877-7.282s-.675-6.601-1.5-8.575c-.825-1.975-1.5-4.891-1.5-6.482 0-1.59-.402-3.673-.894-4.628-.492-.955-1.409-4.211-2.039-7.236a763.13 763.13 0 0 0-2.158-10c-.558-2.475-1.376-7.251-1.819-10.614-.442-3.362-1.12-6.626-1.507-7.252-.653-1.056-1.422-4.606-3.495-16.134-.89-4.944-2.754-12.79-4.175-17.571-.502-1.689-.929-4.839-.948-7-.02-2.161-.679-5.054-1.465-6.429s-1.445-4.386-1.465-6.691c-.019-2.305-.485-4.469-1.035-4.809-.55-.34-1-2.362-1-4.494 0-2.132-.515-5.143-1.145-6.691s-1.547-5.065-2.039-7.815c-.492-2.75-1.291-7.25-1.775-10s-1.412-7.025-2.061-9.5a310.628 310.628 0 0 1-1.98-8 605.792 605.792 0 0 0-2.03-8.5c-1.89-7.665-2.998-13.413-3.88-20.114-.442-3.362-1.188-6.735-1.658-7.495-.469-.76-1.209-3.522-1.643-6.137-2.051-12.358-3.684-19.953-5.876-27.325-.502-1.689-.913-4.741-.913-6.782 0-2.041-.675-5.327-1.5-7.301-.825-1.975-1.5-4.741-1.5-6.147 0-1.406-.421-3.939-.936-5.628-1.624-5.326-4.516-18.872-5.673-26.571-.533-3.549-3.065-9.547-4.891-11.587-.55-.614-2.8-3.682-5-6.818-2.2-3.135-5.458-7.589-7.24-9.898-1.782-2.308-3.245-4.554-3.25-4.99-.009-.73-7.636-11.567-8.943-12.707-.316-.275-4.045-5.675-8.287-12-4.243-6.325-8.75-12.625-10.017-14-3.028-3.287-20.763-27.896-20.763-28.811 0-.39-1.143-1.942-2.54-3.449-2.816-3.037-8.002-3.673-13.145-1.612-1.548.62-4.615 1.536-6.815 2.035-11.499 2.607-19.512 4.126-24 4.549-2.75.26-5.427.881-5.95 1.38-.522.499-2.322.906-4 .903-2.808-.004-10.232 2.045-15.05 4.154-1.1.481-5.468 1.051-9.708 1.265-15.027.759-16.969 4.576-10.982 21.586 2.219 6.302 3.487 11.419 4.215 17 1.562 11.98 2.83 18.255 3.907 19.332.587.587 1.068 2.301 1.068 3.809s.45 3.019 1 3.359c.55.34 1 1.956 1 3.591 0 1.635.675 4.589 1.5 6.563.825 1.975 1.5 5.531 1.5 7.903s.425 5.431.945 6.797c.519 1.367 1.04 5.459 1.158 9.094.118 3.635.818 7.773 1.556 9.195.737 1.422 1.341 4.308 1.341 6.412 0 2.105.45 4.105 1 4.445.55.34 1.003 2.054 1.006 3.809.004 1.755.679 4.48 1.5 6.055.822 1.576 1.494 4.694 1.494 6.929 0 2.236.411 5.447.913 7.136 1.898 6.38 3.289 12.197 3.785 15.827.282 2.066.916 4.005 1.408 4.309.492.304.914 2.214.938 4.244.024 2.03.692 5.491 1.485 7.691.792 2.2 1.448 6.167 1.456 8.816.008 2.648.415 5.573.903 6.5.488.926 1.198 4.38 1.577 7.674.378 3.295 1.047 6.445 1.486 7 .439.556 1.029 2.36 1.312 4.01.283 1.65 1.276 5.475 2.208 8.5.931 3.025 2.062 7.975 2.512 11 2.06 13.84 3.104 19.294 4.024 21.013.546 1.021.993 2.935.993 4.255 0 1.319.337 2.736.749 3.147.914.914 3.01 11.536 4.201 21.293.484 3.964 1.095 7.564 1.358 8 .262.436.774 3.011 1.137 5.723.363 2.711.869 5.269 1.125 5.683.256.414.877 2.695 1.381 5.069.503 2.374 1.638 7.242 2.523 10.817 2.616 10.578 3.562 15.134 4.554 21.933.516 3.539 1.396 6.891 1.955 7.45.56.56 1.017 2.133 1.017 3.496s.421 3.861.936 5.55c1.55 5.082 3.187 12.715 4.091 19.071 1.848 12.988 3.046 18.973 3.989 19.916.541.541.984 2.169.984 3.617 0 1.449.337 2.971.749 3.383 1.493 1.493 3.847 12.512 6.053 28.334.44 3.163 1.31 7.325 1.932 9.25 1.158 3.587 2.227 7.71 4.275 16.5 1.13 4.851 1.663 8.273 3.878 24.921.58 4.356 1.517 8.383 2.084 8.95.566.566 1.029 2.439 1.029 4.162 0 1.724.33 3.464.734 3.868.881.881 3.056 9.976 4.21 17.599 1.784 11.791 3.212 18.54 4.114 19.45.518.523.942 2.12.942 3.55 0 1.43.414 3.027.92 3.55.507.522 1.037 2.975 1.179 5.45.142 2.475.701 5.625 1.242 7s1.328 5.65 1.749 9.5c.722 6.611 2.275 13.919 4.887 23 2.373 8.25 4.219 16.173 5.009 21.5 2.06 13.893 3.119 19.425 3.909 20.422.469.593 1.106 2.428 1.414 4.078.308 1.65 1.286 6.375 2.172 10.5.886 4.125 2.006 10.425 2.487 14 1.47 10.91 3.076 19.213 4.078 21.087.525.98.954 2.942.954 4.361 0 1.418.402 3.361.894 4.316 1.103 2.142 2.964 10.806 6.065 28.236.637 3.575 1.581 6.927 2.099 7.45.518.522.942 1.841.942 2.929 0 1.088.411 3.361.913 5.05 2.677 9.006 4.114 16.4 6.128 31.538.547 4.107 1.436 7.91 1.976 8.45.541.541.983 2.168.983 3.616 0 1.449.337 2.971.749 3.383 1.019 1.019 3.227 9.778 4.306 17.084.487 3.3 1.294 8.7 1.793 12 .499 3.3 1.801 8.475 2.893 11.5 2.386 6.61 4.144 14.382 5.092 22.5.385 3.3.992 6.459 1.35 7.02.358.561.76 3.711.893 7s.686 7.105 1.228 8.48c.542 1.375 1.341 4.525 1.775 7 1.43 8.152 2.894 14.469 3.824 16.5.504 1.1 1.158 2.763 1.454 3.695.894 2.817 6.805 3.245 14.365 1.04 3.728-1.087 10.153-2.51 14.278-3.162 4.125-.652 11.775-2.28 17-3.618 11.713-2.999 20.375-4.907 29.5-6.498 3.85-.671 10.375-2.105 14.5-3.186 6.632-1.738 15.401-3.749 23-5.275 1.375-.276 5.425-.973 9-1.548 3.575-.576 8.525-1.533 11-2.128 2.475-.596 6.3-1.446 8.5-1.89 2.2-.444 7.15-1.514 11-2.379 7.209-1.618 15.168-2.973 26.5-4.51 3.575-.485 7.85-1.34 9.5-1.9 1.65-.56 5.025-1.527 7.5-2.148a180.747 180.747 0 0 0 9-2.567c2.475-.79 5.954-1.434 7.731-1.431 3.991.006 16.385-1.764 21.769-3.108 2.2-.55 5.575-1.381 7.5-1.847 1.925-.466 6.2-1.632 9.5-2.591 3.3-.959 8.475-2.093 11.5-2.52 5.788-.817 9.95-1.789 19-4.434 13.028-3.809 20.616-5.498 24.91-5.545 4.226-.047 14.812-2.163 24.59-4.916 7.363-2.072 16.949-4.242 22.5-5.093 16.415-2.514 19.034-2.987 21.169-3.821 2.264-.885 3.57-1.248 16.397-4.556 3.336-.86 7.717-1.564 9.735-1.564 3.829 0 6.308-.47 21.199-4.019 4.95-1.179 10.575-2.503 12.5-2.94a826.827 826.827 0 0 0 8-1.878c2.475-.595 7.2-1.599 10.5-2.231 3.3-.632 8.025-1.749 10.5-2.482 4.286-1.27 22.829-5.594 26-6.063 8.1-1.199 16.296-2.652 20-3.546a962.058 962.058 0 0 1 8-1.891c1.925-.442 6.65-1.569 10.5-2.504 3.85-.934 9.7-2.051 13-2.481 11.802-1.537 19.054-2.841 22.5-4.045 1.925-.673 4.175-1.458 5-1.744 4.349-1.511 13.204-3.327 18.5-3.794 3.3-.29 7.575-.943 9.5-1.45 1.925-.506 5.3-.921 7.5-.921 3.464-.001 8.302-1.214 16-4.011 8.19-2.976 12.757-4.009 17.703-4.005 8.385.007 14.797-3.205 14.797-7.414 0-1.16-.948-4.578-2.106-7.595-1.158-3.017-2.461-7.286-2.895-9.486-.434-2.2-1.78-8.95-2.991-15-1.21-6.05-2.65-13.475-3.199-16.5-.549-3.025-1.577-7.3-2.283-9.5-.707-2.2-1.824-6.7-2.483-10-3.241-16.238-4.544-18.836-10.043-20.028-1.375-.298-3.882-.976-5.571-1.507-1.689-.531-4.981-.965-7.316-.965-2.334 0-5.195-.508-6.356-1.13-4.566-2.444-27.274-4.753-29.07-2.957-.598.598-3.147 1.087-5.664 1.087-2.518 0-5.469.624-6.558 1.387-1.09.763-4.227 1.635-6.973 1.938-10.636 1.174-17.744 2.527-18.795 3.578-.603.603-2.438 1.097-4.076 1.097-1.638 0-4.361.411-6.05.913-6.556 1.95-12.292 3.296-17.571 4.121-13.081 2.047-16.865 2.824-18.806 3.862-1.135.607-3.866 1.104-6.069 1.104-2.204 0-4.285.45-4.625 1-.34.55-2.137 1-3.994 1-1.857 0-4.643.519-6.191 1.152-1.548.634-5.065 1.513-7.815 1.954-14.212 2.278-16.85 2.844-17.832 3.826-.587.587-3.426 1.068-6.309 1.068s-5.519.45-5.859 1c-.34.55-2.181 1-4.091 1-1.91 0-5.089.675-7.063 1.5-1.975.825-5.534 1.5-7.909 1.5s-4.597.45-4.937 1c-.34.55-2.181 1-4.091 1-1.91 0-5.089.675-7.063 1.5-1.975.825-5.309 1.5-7.409 1.5-2.1 0-4.097.45-4.437 1-.34.55-2.054 1.003-3.809 1.006-1.755.004-4.48.679-6.055 1.5-1.576.822-4.812 1.494-7.191 1.494-2.38 0-4.605.45-4.945 1-.34.55-2.279 1.003-4.309 1.006-2.03.004-4.98.679-6.555 1.5-1.576.822-4.812 1.494-7.191 1.494-2.38 0-4.605.45-4.945 1-.34.55-2.661 1-5.158 1-2.497 0-5.958.644-7.691 1.432-1.733.787-5.176 1.652-7.651 1.922-7.585.826-15.278 2.524-16.366 3.612-.569.569-3.05 1.034-5.513 1.034s-5.861.411-7.55.913c-5.97 1.776-12.13 3.258-17.071 4.108-2.75.473-8.467 1.478-12.704 2.235-8.233 1.47-10.796.926-10.796-2.291 0-1.998-1.028-7.129-2.999-14.965-2.283-9.078-3.157-13.642-3.832-20-.379-3.575-1.118-7.173-1.64-7.996-.523-.822-1.278-3.522-1.678-6-1.316-8.149-2.346-12.406-5.943-24.575-.499-1.689-.908-4.981-.908-7.316 0-2.334-.497-5.172-1.104-6.307-.607-1.134-1.524-4.592-2.039-7.684-1.906-11.458-2.594-14.689-3.712-17.437-.63-1.548-1.145-4.109-1.145-5.691 0-1.582-.45-3.154-1-3.494-.55-.34-1-2.871-1-5.625 0-2.753-.497-5.934-1.104-7.069-.607-1.134-1.486-4.367-1.953-7.184-1.811-10.908-2.842-15.564-3.872-17.49-.589-1.1-1.071-3.579-1.071-5.507 0-1.929-.45-3.785-1-4.125-.55-.34-1-2.812-1-5.494s-.515-6.143-1.145-7.691c-1.081-2.657-1.532-4.721-3.678-16.815-.488-2.75-1.402-6.267-2.032-7.815-.63-1.548-1.145-4.334-1.145-6.191 0-1.857-.45-3.654-1-3.994-.55-.34-1.016-2.954-1.035-5.809-.02-2.855-.679-6.316-1.465-7.691s-1.445-4.386-1.465-6.691c-.019-2.305-.485-4.469-1.035-4.809-.55-.34-1-2.112-1-3.937 0-1.825-.675-4.934-1.5-6.909-.825-1.974-1.5-4.928-1.5-6.563 0-1.635-.45-3.251-1-3.591-.55-.34-1-2.871-1-5.625 0-2.753-.54-5.989-1.2-7.191-.66-1.201-1.54-4.434-1.954-7.184-1.726-11.451-2.702-16.458-3.443-17.657-.959-1.551-2.295-8.306-3.235-16.343-.385-3.3-1.058-6.564-1.495-7.253-.735-1.158-1.473-4.506-3.585-16.247-.89-4.944-2.754-12.79-4.175-17.571-.502-1.689-.913-4.756-.913-6.816 0-2.059-.537-4.727-1.193-5.929-1.136-2.081-1.479-3.656-3.674-16.878-.52-3.131-1.298-6.265-1.73-6.963-.959-1.551-2.295-8.306-3.235-16.343-.385-3.3-1.073-6.588-1.528-7.306-.455-.719-1.217-3.644-1.693-6.5-1.754-10.526-2.586-14.301-3.467-15.726-.917-1.484-1.912-6.657-3.367-17.5-.445-3.318-1.328-7.001-1.961-8.185-.634-1.183-1.152-3.387-1.152-4.896 0-1.51-.411-4.127-.913-5.816-2.238-7.53-3.918-15.415-5.98-28.071-.835-5.129-2.576-12.629-4.194-18.071-.502-1.689-.913-4.247-.913-5.685 0-1.438-.512-3.881-1.137-5.429-1.365-3.38-2.683-9.643-3.773-17.929-.442-3.362-1.188-6.735-1.658-7.495-.469-.76-1.191-3.409-1.604-5.887l-1.685-10.126c-.515-3.092-1.432-6.55-2.039-7.684-.607-1.135-1.104-3.577-1.104-5.428s-.41-3.794-.912-4.316c-.502-.523-1.125-3.425-1.386-6.45-.261-3.025-1.021-7.525-1.689-10-.668-2.475-1.574-6.075-2.013-8a310.628 310.628 0 0 0-1.98-8c-1.277-4.865-2.429-11.013-3.855-20.573-.498-3.34-1.414-7.023-2.035-8.184-.622-1.161-1.13-3.465-1.13-5.118 0-1.654-.45-3.285-1-3.625-.55-.34-1-1.661-1-2.937 0-1.275-.675-2.878-1.5-3.563s-1.5-2.063-1.5-3.063c0-1.001-.45-2.097-1-2.437-.55-.34-1-1.535-1-2.655 0-1.12-.628-3.231-1.396-4.691-.768-1.46-3.081-6.254-5.139-10.654-3.482-7.441-4.614-10.009-7.282-16.5-.565-1.375-2.862-6.428-5.105-11.23-2.243-4.801-4.078-9.104-4.078-9.562 0-.458-.847-2.604-1.882-4.77-3.42-7.158-5.857-12.891-6.987-16.438-.613-1.925-1.826-5.75-2.696-8.5-2.287-7.238-3.782-8.516-9.84-8.414-2.802.047-6.445.542-8.095 1.099m550.475 838.741c-3.038.419-6.496 1.283-7.684 1.918-1.188.636-4.188 1.156-6.666 1.156-2.479 0-4.746.387-5.039.86-.292.474-2.636 1.149-5.208 1.502-2.572.352-5.172 1.042-5.777 1.532-.606.49-3.126 1.14-5.601 1.444-9.913 1.216-16.869 2.463-18.146 3.252-.74.457-3.372 1.169-5.85 1.582-2.477.412-7.115 1.182-10.306 1.71-3.191.528-6.341 1.397-7 1.932-.659.534-3.223 1.215-5.698 1.512-8.711 1.046-17.127 2.672-18.988 3.667-1.034.554-3.254 1.007-4.932 1.007-3.169 0-9.008 1.175-17.58 3.539-2.75.758-6.35 1.599-8 1.869-8.435 1.381-13.565 2.556-15.368 3.521-1.1.589-3.686 1.071-5.745 1.071-2.06 0-5.127.409-6.816.908-9.36 2.767-14.443 4.073-17.571 4.516-13.117 1.855-17.214 2.62-18.926 3.536-1.068.572-3.746 1.04-5.949 1.04-2.204 0-4.285.45-4.625 1-.34.55-1.956 1-3.591 1-1.635 0-4.589.675-6.563 1.5-1.975.825-5.534 1.5-7.909 1.5s-4.597.45-4.937 1c-.34.55-2.181 1-4.091 1-1.91 0-5.089.675-7.063 1.5-1.975.825-4.966 1.5-6.647 1.5s-4.439.409-6.128.908c-13.093 3.87-14.645 4.216-27.362 6.095-3.46.511-6.835 1.269-7.5 1.683-.665.415-3.459 1.079-6.209 1.477-9.264 1.339-16.748 2.899-18.564 3.871-.992.531-3.383.966-5.311.966-1.929 0-3.785.45-4.125 1-.34.55-2.504 1.003-4.809 1.006-2.305.004-5.48.679-7.055 1.5-1.576.822-4.619 1.494-6.764 1.494-2.144 0-4.681.427-5.636.949-.955.522-3.863 1.223-6.463 1.558-2.599.334-4.988 1.033-5.309 1.551-.32.518-2.554.942-4.964.942-2.41 0-4.621.386-4.913.859-.291.472-3.295 1.109-6.674 1.415-3.379.307-6.632 1.045-7.229 1.642-.596.596-3.25 1.084-5.898 1.084-2.647 0-5.595.402-6.55.894-2.121 1.092-11.134 3.067-17.236 3.777-2.475.287-4.928.929-5.45 1.426-.523.497-2.674.903-4.782.903s-5.448.675-7.422 1.5c-1.975.825-4.966 1.5-6.647 1.5-3.067 0-4.814.414-14.333 3.393-2.824.884-6.51 1.607-8.191 1.607-1.681 0-3.335.45-3.675 1-.34.55-2.587 1-4.994 1-2.407 0-5.643.519-7.191 1.152-1.548.634-5.065 1.513-7.815 1.954-13.252 2.124-16.486 2.768-17.694 3.52-.718.448-3.556 1.144-6.306 1.547-12.777 1.872-18.007 2.934-18.916 3.843-.541.541-2.028.984-3.304.984-3.538 0-9.26 4.09-14.79 10.571-6.789 7.957-16.799 18.681-30.266 32.423-13.271 13.543-14.273 15.637-11.755 24.57 1.701 6.033 2.618 10.792 4.324 22.436.524 3.575 1.88 9.425 3.014 13 2.868 9.044 4.229 15.273 5.243 24 2.098 18.055 3.778 21.443 10.508 21.19 2.021-.076 4.184-.534 4.808-1.018 1.74-1.351 14.078-4.17 18.34-4.19 4.31-.021 19.224-2.525 23.771-3.991 11.968-3.86 12-3.867 31.523-7.12 6.564-1.093 14.493-3.04 27.737-6.811 3.981-1.133 8.454-2.06 9.94-2.06 4.034 0 13.24-1.891 28.323-5.819 7.425-1.933 15.075-3.678 17-3.877 8.694-.9 24.161-4.21 29.5-6.313 3.293-1.297 14.652-3.829 20-4.459 2.75-.324 8.375-.995 12.5-1.492 4.125-.498 12.363-2.51 18.307-4.472 5.944-1.962 11.992-3.568 13.44-3.568 5.416 0 26.558-4.267 35.753-7.216 3.3-1.058 9.6-2.308 14-2.778 9.71-1.036 18.525-2.565 22.812-3.956 12.156-3.944 16.511-4.947 30.688-7.063 8.024-1.198 15.856-3.106 25.5-6.214 5.892-1.898 11.049-2.812 27-4.783 7.161-.886 14.248-2.52 18.5-4.268 3.76-1.546 12.628-3.722 15.167-3.722 1.542 0 4.723-.422 7.069-.937 6.246-1.372 21.113-4.892 30.077-7.121 4.298-1.068 9.248-1.942 11-1.943 4.98-.001 18.936-3.106 34.187-7.606 2.75-.811 8.15-1.88 12-2.375 13.158-1.691 20.658-3.032 22.513-4.025 1.021-.546 2.791-.993 3.935-.993 1.143 0 2.861-.401 3.816-.891 3.171-1.628 12.865-4.109 16.055-4.109 6.505 0 27.616-3.877 32.681-6.002 5.57-2.337 12.314-3.998 16.228-3.998 10.166 0 13.604-5.738 9.867-16.467-.773-2.218-1.93-6.733-2.571-10.033-1.607-8.277-3.918-18.408-5.018-22-1.427-4.661-3.134-12.594-3.657-17-.261-2.2-.885-5.8-1.387-8s-.924-5.405-.938-7.123c-.034-4.389-3.559-11.861-6.795-14.405-1.501-1.181-12.598-8.652-24.659-16.603-23.718-15.635-24.541-15.969-35.595-14.443" fill-rule="evenodd"/><path fill="#12f1fa" stroke="#12f1fa" d="M444.632 106.701c-.385.386-3.048 1.036-5.916 1.444-2.869.409-8.141 1.481-11.716 2.384-3.575.902-7.85 1.884-9.5 2.182-1.65.297-3.45.867-4 1.267-.55.399-5.275 1.498-10.5 2.441-5.225.943-10.85 2.159-12.5 2.702-1.65.544-6.375 1.26-10.5 1.593-13.586 1.096-16.508 3.83-14.072 13.161 1.177 4.512 1.622 6.726 4.037 20.125.644 3.575 1.556 7.4 2.025 8.5 2.786 6.522 6.01 19.047 6.01 23.348 0 1.55.337 3.153.75 3.561.413.409 1.264 5.096 1.892 10.417.628 5.321 1.61 11.249 2.181 13.174.571 1.925 1.788 5.975 2.704 9 .916 3.025 2.035 7.525 2.486 10 .451 2.475 1.297 6.3 1.88 8.5s1.07 5.891 1.083 8.203c.022 3.835.605 6.014 3.155 11.797 1.329 3.014 2.944 11.11 3.889 19.5 1.77 15.717 2.964 21.911 4.881 25.324 1.903 3.388 3.236 8.44 5.061 19.176.468 2.75 1.137 5.713 1.487 6.584.351.871 1.029 4.696 1.507 8.5.479 3.804 1.339 8.491 1.913 10.416 2.824 9.481 4.291 16.208 5.126 23.5 1.955 17.068 3.21 25.037 4.09 25.95.503.522.915 1.958.915 3.191 0 1.233.378 2.475.841 2.761 1.163.718 3.918 11.943 4.565 18.598 1.052 10.808 2.636 19.203 5.149 27.29 1.404 4.515 2.979 9.592 3.499 11.281s.946 4.506.946 6.261c0 4.059 2.778 21.871 3.925 25.168.478 1.375 1.625 5.2 2.549 8.5.923 3.3 2.064 6.9 2.534 8 .471 1.1 1.074 3.35 1.342 5 .267 1.65.962 4.8 1.544 7 .582 2.2 1.069 6.116 1.082 8.703.022 4.276.507 6.18 3.131 12.297 1.906 4.443 3.557 13.861 5.873 33.5.551 4.675 1.407 9.4 1.902 10.5 1.439 3.198 4.118 12.574 4.118 14.415 0 .927.401 2.112.891 2.635.49.522 1.128 3.65 1.417 6.95.914 10.423 2.676 19.8 4.887 26 2.776 7.784 3.79 12.327 4.798 21.5 1.116 10.16 2.866 19.72 4.039 22.065l1.944 3.884c1.58 3.153 5.604 23.018 6.492 32.051.496 5.046 2.125 11.029 3.676 13.5 1.097 1.749 4.66 23.217 6.432 38.763.362 3.17 1.055 6.009 1.541 6.309.486.3.883 1.779.883 3.287s.403 3.169.895 3.691c1.161 1.233 3.053 9.237 4.125 17.45 1.86 14.248 3.109 20.532 5.491 27.628 1.369 4.078 2.489 8.503 2.489 9.834 0 1.331.45 2.698 1 3.038.55.34 1 2.391 1 4.559 0 4.618 2.703 21.542 3.904 24.441.456 1.1 1.352 3.125 1.991 4.5 1.492 3.207 5.185 17.349 5.833 22.337.641 4.929-.283 5.74-7.005 6.151-3.04.185-6.483.848-7.651 1.474-1.168.625-4.685 1.002-7.815.837-5.609-.295-5.701-.349-6.465-3.799-.427-1.925-3.029-14.3-5.782-27.5-2.754-13.2-5.437-25.575-5.962-27.5-.525-1.925-1.223-5.075-1.552-7-.52-3.046-3.06-15.657-4.028-20-1.083-4.857-6.776-31.529-7.898-37-.733-3.575-2.975-14.15-4.983-23.5a6279.537 6279.537 0 0 1-5.218-24.5c-.861-4.125-1.708-8.175-1.881-9-.172-.825-1.009-4.65-1.859-8.5-2.009-9.093-7.386-34.28-8.007-37.5-.265-1.375-1.452-7-2.638-12.5s-3.215-14.95-4.51-21c-1.294-6.05-3.033-14.15-3.865-18-.831-3.85-1.751-8.35-2.042-10-.292-1.65-2.359-11.325-4.592-21.5-2.234-10.175-4.53-20.975-5.102-24-.572-3.025-2.625-12.7-4.562-21.5-4.928-22.395-6.273-28.626-6.797-31.5-.601-3.299-3.167-15.486-10.527-50-3.343-15.675-8.064-37.95-10.491-49.5-9.424-44.848-14.627-69.242-15.995-75-.784-3.3-1.693-7.575-2.019-9.5-.842-4.974-10.323-49.799-11.422-54-.503-1.925-1.43-6.2-2.059-9.5-.63-3.3-1.753-8.7-2.495-12-.743-3.3-2.143-9.555-3.113-13.9-1.59-7.128-2.623-9.11-10.578-20.305-4.848-6.823-8.815-12.588-8.815-12.81 0-.222-2.813-4.221-6.25-8.886-3.437-4.664-9.625-13.278-13.75-19.14a1956.44 1956.44 0 0 0-13.781-19.31c-3.455-4.757-8.048-11.349-10.206-14.649-4.253-6.502-9.419-10.105-13.207-9.209-1.268.3-8.128 1.932-15.245 3.627-7.116 1.695-13.985 3.082-15.265 3.082-1.279 0-4.907.659-8.061 1.464-21.176 5.405-34.35 8.157-40.459 8.453-4.559.22-5.148 7.054-1.301 15.083.659 1.375 1.767 5.2 2.462 8.5.694 3.3 1.893 8.729 2.663 12.064.77 3.335 1.4 7.954 1.4 10.263 0 2.31.396 4.982.879 5.937 3.032 5.987 7.762 27.319 9.144 41.236.464 4.675 1.308 10.525 1.876 13 1.889 8.232 3.748 15.482 4.36 17 .332.825.817 3.075 1.077 5 .49 3.625 3.064 17.244 4.254 22.5.373 1.65 1.047 3.471 1.499 4.047.876 1.12 2.525 9.166 3.883 18.953 1.628 11.728 3.161 21.042 3.952 24 1.45 5.426 4.341 14.962 5.154 17 .811 2.032 1.023 3.212 2.975 16.5 1.228 8.366 2.696 14.639 4.026 17.206.486.939 1.152 3.639 1.48 6 .328 2.362.991 5.194 1.474 6.294.483 1.1 1.099 4.475 1.369 7.5.588 6.577 3.092 21.916 4.488 27.5.551 2.2 1.738 6.7 2.639 10 1.704 6.238 2.613 10.212 4.461 19.5 2.816 14.148 3.432 16.679 4.677 19.2.733 1.486 1.333 4.433 1.333 6.55 0 2.118.406 4.277.903 4.8.497.522 1.147 2.975 1.446 5.45 1.723 14.293 4.404 27.573 6.158 30.5.66 1.1 1.742 4.7 2.406 8 .664 3.3 1.628 7.376 2.142 9.058.515 1.682 1.186 5.957 1.491 9.5.574 6.652 2 13.186 3.519 16.127.823 1.593 2.284 8.786 3.823 18.819.38 2.478 1.011 5.024 1.403 5.658.392.635.946 4.683 1.23 8.996.497 7.532 1.157 10.753 4.123 20.127.746 2.357 1.356 5.079 1.356 6.05 0 .971.404 2.192.898 2.715.493.522 1.143 2.75 1.444 4.95 2.208 16.161 3.714 23.434 5.799 28 1.071 2.346 2.661 10.354 3.871 19.5 1.763 13.32 4.543 26.541 6.731 32 2.133 5.324 3.257 9.772 3.257 12.887 0 1.784.455 4.094 1.011 5.133.555 1.038 1.253 4.721 1.551 8.184.549 6.4 1.929 12.682 3.579 16.296 1.024 2.242 2.53 9.768 3.903 19.5 1.448 10.259 3.721 23.136 4.854 27.5 3.247 12.505 4.94 19.777 7.447 32 2.59 12.622 2.928 13.989 3.707 15 .924 1.199 2.922 10.245 3.643 16.5.286 2.475.947 5.027 1.469 5.671.523.644 1.351 5.144 1.841 10 1.108 10.978 1.949 15.267 3.494 17.829.664 1.1 1.772 4.7 2.462 8 .69 3.3 1.671 7.348 2.18 8.995.509 1.648 1.171 6.373 1.471 10.5.3 4.128.915 8.405 1.366 9.505 2.223 5.42 3.16 8.791 5.004 18 1.101 5.5 2.445 11.8 2.986 14 .542 2.2.995 6.566 1.008 9.703.013 3.137.422 6.737.909 8 .487 1.263 1.638 5.672 2.558 9.797 4.991 22.381 4.41 21.91 21.557 17.49 3.575-.922 9.2-2.036 12.5-2.478 3.3-.441 8.7-1.568 12-2.503 10.506-2.98 22.801-5.72 33.5-7.466 3.025-.494 8.2-1.616 11.5-2.493 13.619-3.622 26.824-6.478 35-7.571 3.85-.514 9.925-1.628 13.5-2.475 10.139-2.401 15.017-3.443 21.5-4.594 3.3-.586 7.575-1.44 9.5-1.898 1.925-.457 6.65-1.356 10.5-1.997 10.046-1.673 14.217-2.576 21-4.55 3.3-.961 8.25-2.084 11-2.497 9.28-1.391 25.934-4.638 35-6.823 7.05-1.699 31.925-7.231 34.157-7.596 1.187-.194 3.662-.843 5.5-1.443 10.525-3.433 13.288-4.106 16.864-4.106 2.172 0 5.869-.447 8.215-.994 2.345-.546 8.539-1.923 13.764-3.059 5.225-1.137 11.3-2.518 13.5-3.07 2.2-.552 6.475-1.458 9.5-2.013 3.025-.555 7.075-1.379 9-1.832 1.925-.452 7.55-1.567 12.5-2.479 8.601-1.583 10.9-2.144 19.136-4.667 1.999-.612 6.387-1.513 9.75-2.002 13.085-1.902 20.63-3.413 35.114-7.028 3.849-.961 13.633-3.088 22-4.783 5.912-1.198 13.682-3.198 16.297-4.196 1.263-.483 3.431-.877 4.816-.877 1.385 0 3.456-.502 4.603-1.116 1.146-.613 5.054-1.546 8.684-2.073 14.846-2.155 17.882-2.697 24.1-4.296 3.575-.92 7.625-1.89 9-2.156 1.375-.266 5.2-1.101 8.5-1.855 3.3-.755 9.375-1.911 13.5-2.569 4.125-.658 11.325-2.067 16-3.13a1508.91 1508.91 0 0 1 12.077-2.704c1.967-.423 4.155-1.126 4.862-1.563.706-.437 4.272-1.184 7.923-1.661 6.957-.908 20.149-3.084 28.638-4.725 2.75-.532 7.7-1.871 11-2.976s8.25-2.309 11-2.675c15.991-2.126 16.765-2.877 13.685-13.299-1.089-3.686-2.532-9.177-3.207-12.202-.674-3.025-1.616-6.625-2.093-8-.477-1.375-1.376-5.875-1.998-10-1.996-13.242-2.623-16.36-4.776-23.737-1.161-3.981-2.111-8.312-2.111-9.625 0-7.839-5.437-15.63-10.924-15.653-2.46-.011-3.141-.291-2.181-.899 1.56-.988-4.885-2.448-22.395-5.076-3.3-.495-7.8-1.353-10-1.906-4.735-1.191-3.749-1.195-7.732.033-1.797.554-5.743 1.407-8.768 1.895-14.353 2.316-16.886 2.836-18.806 3.864-1.135.607-4.091 1.104-6.569 1.104-2.479 0-4.785.45-5.125 1-.34.55-2.196 1-4.125 1-1.928 0-4.489.537-5.691 1.193-2.105 1.149-5.757 1.911-17.834 3.719-3.108.466-6.17 1.168-6.807 1.561-.636.393-3.606 1.123-6.599 1.621l-10.888 1.812c-2.993.498-6.029 1.268-6.745 1.711-.716.442-3.329 1.142-5.807 1.555l-10.198 1.695c-3.131.52-6.194 1.255-6.806 1.633-1.091.674-6.669 1.721-18.353 3.443-3.219.475-6.347 1.357-6.95 1.96-.603.603-2.663 1.097-4.576 1.097-1.913 0-4.861.416-6.55.924-3.787 1.138-18.37 4.158-28.571 5.915-2.475.427-5.483 1.312-6.684 1.968-1.202.656-3.763 1.193-5.691 1.193-1.929 0-3.785.45-4.125 1-.34.55-2.279 1.02-4.309 1.044-2.03.024-5.491.692-7.691 1.485-2.2.792-5.436 1.448-7.191 1.456-1.755.008-3.469.465-3.809 1.015-.34.55-2.646 1-5.125 1-2.478 0-5.489.54-6.691 1.2-1.201.66-4.434 1.544-7.184 1.965-2.75.42-7.768 1.176-11.15 1.679-3.383.503-6.741 1.28-7.463 1.726-1.5.927-7.648 2.174-16.419 3.331-3.318.438-7.001 1.314-8.185 1.947-1.183.634-3.387 1.152-4.896 1.152-1.51 0-4.127.411-5.816.913-14.604 4.341-28.739 6.319-30.755 4.303-.413-.413-2.126-7.269-3.806-15.234-1.68-7.965-4.446-21.007-6.146-28.982A6617.874 6617.874 0 0 1 625 808c-2.701-12.955-7.698-36.389-10.023-47-1.144-5.225-3.619-16.925-5.499-26-1.88-9.075-4.116-19.65-4.97-23.5-1.888-8.518-9.739-45.705-12.983-61.5-1.299-6.325-3.067-14.539-3.929-18.252-.863-3.714-1.819-8.214-2.126-10-.307-1.787-1.016-4.975-1.576-7.086-.56-2.11-1.655-7.285-2.432-11.5-.778-4.214-2.334-11.712-3.459-16.662-1.124-4.95-2.28-10.35-2.567-12-.288-1.65-.94-4.575-1.448-6.5-.508-1.925-1.811-8-2.895-13.5s-3.828-18.55-6.098-29c-2.269-10.45-4.538-21.025-5.042-23.5a969.85 969.85 0 0 0-2.449-11.5c-.844-3.85-1.772-8.35-2.063-10-.291-1.65-.938-4.575-1.437-6.5-.5-1.925-2.694-12.275-4.876-23-2.181-10.725-4.874-23.55-5.984-28.5-2.247-10.022-8.792-40.611-9.522-44.5-.649-3.454-7.957-37.913-11.135-52.5-1.438-6.6-4.13-19.2-5.983-28-2.919-13.86-12.309-58.149-12.933-61-.121-.55-.765-3.7-1.432-7-2.874-14.216-5.642-24.4-8.153-30-1.48-3.3-3.743-8.7-5.029-12-1.286-3.3-3.378-7.98-4.648-10.399-1.27-2.419-2.309-4.77-2.309-5.223 0-.453-1.179-3.423-2.62-6.601-1.441-3.177-3.192-7.127-3.891-8.777-.699-1.65-2.696-6.375-4.438-10.5-1.743-4.125-3.566-8.4-4.051-9.5-3.25-7.366-7-16.427-7-16.915 0-.319-1.383-3.506-3.072-7.082L453.855 106h-4.261c-2.343 0-4.576.315-4.962.701M869.5 847.713c-3.063.737-4.004 2.106-1.061 1.543 1.425-.272 2.835-.891 3.135-1.375.299-.485.405-.829.235-.765-.17.064-1.209.332-2.309.597m-377.75 80.949c.688.278 1.813.278 2.5 0 .688-.277.125-.504-1.25-.504s-1.937.227-1.25.504m498.75 16.422c-11.633 1.866-16.16 2.785-18.815 3.819-1.548.603-4.109 1.097-5.691 1.097-1.582 0-3.154.45-3.494 1-.34.55-2.421 1-4.625 1-2.203 0-4.957.508-6.118 1.13-1.161.621-4.619 1.498-7.684 1.947-9.724 1.427-15.878 2.748-17.941 3.852-1.1.589-3.804 1.071-6.007 1.071-2.204 0-4.285.45-4.625 1-.34.55-2.137 1-3.994 1-1.857 0-4.643.498-6.191 1.106-1.548.609-5.29 1.491-8.315 1.96-12.634 1.961-16.947 2.783-18 3.434-.612.378-3.45 1.059-6.306 1.513-2.857.454-8.119 1.559-11.694 2.455-7.823 1.961-13.396 3.107-21.844 4.491-3.489.571-6.847 1.35-7.463 1.731-1.083.669-4.699 1.444-15.193 3.254-2.75.474-6.267 1.356-7.815 1.959S804.244 985 802.256 985c-1.988 0-4.996.421-6.685.936-4.894 1.493-19.585 4.731-27.265 6.011-2.856.476-5.694 1.175-6.306 1.553-1.044.645-2.876 1.005-17.122 3.362-3.092.512-6.55 1.427-7.684 2.034-1.135.607-3.073 1.104-4.307 1.104-1.235 0-3.627.411-5.316.913-5.682 1.689-13.036 3.374-18.071 4.141-12.036 1.832-17.183 2.833-19.815 3.854-1.548.601-3.991 1.092-5.429 1.092-1.438 0-3.996.411-5.685.913-8.597 2.557-12.507 3.395-27.765 5.947-3.131.524-6.265 1.305-6.963 1.737-1.249.772-5.274 1.64-15.537 3.35-2.856.476-5.781 1.231-6.5 1.679-.718.448-3.668 1.165-6.556 1.594-10.76 1.599-15.883 2.521-20.75 3.735-12.96 3.234-22.861 5.257-38.694 7.905-3.131.524-6.265 1.305-6.963 1.737-.698.432-3.199 1.149-5.556 1.594l-8.574 1.618c-2.357.445-4.893 1.185-5.636 1.643-.742.459-4.101 1.199-7.463 1.645-11.217 1.488-17.339 2.686-19.42 3.799-1.135.607-3.523 1.104-5.307 1.104-1.785 0-4.627.421-6.316.934-3.564 1.085-12.108 2.976-18.571 4.11-14.852 2.608-16.238 3.509-31.668 20.587-6.893 7.628-17.324 18.767-23.182 24.752-5.857 5.986-9.975 10.521-9.15 10.079 1.092-.587 1.024-.262-.25 1.195-1.883 2.152-2.54 12.737-.856 13.778.492.304 1.121 2.243 1.398 4.309.277 2.066.989 5.556 1.582 7.756.593 2.2 1.096 6.025 1.117 8.5.036 4.254 2.23 12.29 3.956 14.492.435.554 1.343 4.833 2.02 9.508.676 4.675 1.635 9.534 2.131 10.797.496 1.263.922 4.188.946 6.5.07 6.83 1.582 12.774 3.817 15.009l2.091 2.09 6.419-2.203c3.531-1.211 8.604-2.474 11.274-2.806 5.649-.702 32-5.895 37.855-7.46 2.2-.588 9.4-2.136 16-3.441 15.023-2.971 21.52-4.393 28.5-6.238 3.025-.8 7.75-1.904 10.5-2.454 11.376-2.275 25.162-4.962 27.5-5.36 2.535-.432 8.042-1.843 13.5-3.457 1.65-.488 5.7-1.337 9-1.886 10.064-1.674 21.783-3.989 26-5.136 2.2-.598 5.575-1.476 7.5-1.951l7.5-1.853c4.808-1.188 12.524-2.657 22-4.188 8.591-1.388 13.918-2.494 18.5-3.842a156.687 156.687 0 0 1 17-4.024c15.421-2.764 24.022-4.497 29-5.845 3.025-.819 7.525-1.881 10-2.361 22.16-4.289 35.136-6.96 38.5-7.925 3.811-1.093 7.778-1.917 26-5.4 9.069-1.734 14.223-2.918 20-4.593 4.147-1.204 15.422-3.521 33.5-6.886 5.775-1.074 12.075-2.416 14-2.98 4.229-1.24 11.565-2.879 19-4.243 12.904-2.368 23.345-4.737 30.592-6.939 1.701-.517 6.201-1.382 10-1.923 9.436-1.342 26.518-4.782 34.408-6.929 7.458-2.03 11.772-2.963 19-4.11 7.791-1.235 16.572-3.086 26-5.479 11.064-2.809 13.688-3.366 23.5-4.986 15.362-2.536 24.651-4.55 30.5-6.611 1.375-.484 6.289-1.534 10.921-2.333 12.664-2.183 13.032-2.775 9.784-15.729-1.424-5.679-2.819-11.675-3.1-13.325-.549-3.23-2.814-12.528-4.629-19-.617-2.2-1.549-6.25-2.072-9-.523-2.75-1.39-6.919-1.927-9.264-.537-2.346-.977-5.977-.977-8.069 0-11.344-4.243-17.566-18.514-27.151-4.392-2.95-8.136-5.735-8.319-6.19-.184-.454-.709-.826-1.168-.826-.46 0-5.635-3.192-11.501-7.094-13.797-9.176-15.494-9.668-26.998-7.822m-91.998 63.919c.341.552 2.042.754 3.779.448 4.684-.826 4.61-1.451-.173-1.451-2.573 0-3.983.393-3.606 1.003M852 1019.014c0 .593 1.337.779 3.22.447 4.549-.801 4.751-1.461.447-1.461-2.017 0-3.667.456-3.667 1.014m-141.635 30.205c-.634 1.026 2.596.877 5.135-.237 1.616-.71 1.362-.846-1.326-.711-1.829.091-3.543.518-3.809.948" fill-rule="evenodd"/><path fill="#04bcbc" stroke="#04bcbc" d="M436.5 109.613c-40.564 9.091-48.209 10.741-60 12.945-4.95.926-9.348 1.999-9.773 2.386-.426.386.115 4.72 1.202 9.629 1.086 4.91 3.181 14.327 4.654 20.927 2.744 12.29 3.216 14.517 5.83 27.5 1.725 8.57 8.072 38.31 10.244 48 .801 3.575 2.081 9.65 2.844 13.5 1.303 6.577 2.146 10.498 4.457 20.75 1.228 5.446 7.972 37.296 13.588 64.172 2.405 11.507 4.646 21.632 4.982 22.5.335.868 1.701 7.203 3.036 14.078 1.334 6.875 4.032 19.925 5.996 29 3.337 15.427 4.573 21.405 8.893 43a611.185 611.185 0 0 0 3.707 17c1.103 4.675 2.143 9.4 2.31 10.5.44 2.896 6.152 30.059 7.962 37.862.847 3.653 1.782 8.104 2.077 9.89.295 1.787.94 4.373 1.434 5.748.493 1.375 1.128 4.3 1.412 6.5.283 2.2 1.252 7.15 2.153 11 .9 3.85 2.06 8.8 2.576 11 1.134 4.83 1.653 7.315 3.031 14.5 2.143 11.172 3.874 19.728 5.767 28.5l5.072 23.5c1.721 7.975 3.606 16.75 4.188 19.5.583 2.75 1.418 6.575 1.855 8.5.438 1.925 2.461 11.6 4.496 21.5 2.034 9.9 3.886 18.303 4.114 18.673.229.37.84 2.845 1.359 5.5.52 2.655 2.785 13.602 5.035 24.327 2.25 10.725 6.756 32.325 10.014 48 3.258 15.675 6.885 32.775 8.06 38 1.175 5.225 2.512 11.525 2.971 14 .46 2.475 2.225 11.025 3.923 19 1.699 7.975 3.516 16.525 4.039 19 1.838 8.701 5.592 25.848 8.866 40.5 3.118 13.95 6.002 28.957 5.636 29.323-.182.183-6.334 1.674-13.671 3.314A4665.726 4665.726 0 0 0 497 928.538c-5.775 1.331-12.075 2.623-14 2.873-1.925.249-7.658 1.383-12.739 2.521-8.767 1.962-14.261 2.591-14.261 1.633 0-.415-.731-3.838-5.136-24.065-1.078-4.95-3.255-15.3-4.838-23-1.582-7.7-4.958-23.675-7.5-35.5-2.543-11.825-5.976-28.025-7.629-36-1.653-7.975-3.692-17.425-4.53-21-.838-3.575-2.813-12.8-4.388-20.5-1.576-7.7-4.036-19.4-5.467-26-1.431-6.6-3.682-17.175-5.003-23.5a5497.262 5497.262 0 0 0-5.52-26c-1.715-7.975-4.2-19.675-5.523-26-1.322-6.325-3.108-14.65-3.968-18.5-.86-3.85-1.951-9.025-2.424-11.5-.474-2.475-2.752-13.275-5.064-24-2.311-10.725-5.249-24.45-6.529-30.5a60438.156 60438.156 0 0 0-22.536-105.75 6798.51 6798.51 0 0 1-5.98-28.25c-1.609-7.7-4.026-19.175-5.372-25.5-1.346-6.325-3.572-16.9-4.946-23.5-2.937-14.104-5.363-25.419-6.646-31-.506-2.2-1.824-8.275-2.929-13.5-1.106-5.225-4.077-19.175-6.602-31a8758.522 8758.522 0 0 1-7.506-35.5c-1.602-7.7-3.843-18.275-4.978-23.5-1.135-5.225-3.87-18.05-6.078-28.5s-5.311-25.075-6.896-32.5c-1.584-7.425-4.907-23.175-7.382-35-6.969-33.284-7.032-33.515-9.226-33.4-3.099.163-9.162 1.309-17.797 3.363-4.459 1.06-13.057 2.899-19.107 4.085-17.951 3.519-19.861 3.929-23 4.935-1.65.529-7.034 1.656-11.965 2.504-4.93.848-9.324 1.902-9.763 2.341-.44.44.123 5.046 1.25 10.236 1.128 5.19 3.384 15.961 5.015 23.936 1.631 7.975 3.904 18.325 5.051 23 1.146 4.675 3.621 16.266 5.498 25.757 1.877 9.491 5.937 28.841 9.022 43 3.085 14.159 5.985 27.768 6.444 30.243.875 4.718 7.806 37.485 10.47 49.5 1.908 8.606 2.907 13.308 5.418 25.5 1.076 5.225 2.66 12.65 3.52 16.5.86 3.85 2.879 13.3 4.487 21 3.049 14.603 8.408 39.831 12.639 59.5a3548.897 3548.897 0 0 1 4.445 21c1.085 5.225 3.777 17.825 5.984 28s5.142 24.125 6.522 31c1.381 6.875 3.359 16.1 4.396 20.5 1.037 4.4 2.634 11.6 3.55 16 1.884 9.048 1.906 9.153 8.14 38.5 2.513 11.825 5.683 26.675 7.046 33 1.363 6.325 2.849 13.525 3.302 16 1.252 6.836 8.57 41.384 10.803 51 1.085 4.675 2.487 10.975 3.116 14 .628 3.025 2.059 9.775 3.18 15a2649.34 2649.34 0 0 1 2.866 13.5c5.711 27.582 10.273 49.316 11.545 55 .861 3.85 2.954 13.525 4.651 21.5 3.504 16.468 3.648 17.156 7.773 37.211 1.665 8.092 4.374 20.692 6.022 28 1.648 7.309 3.711 17.114 4.585 21.789.875 4.675 2.453 11.875 3.508 16 1.056 4.125 3.514 15.375 5.464 25l6.585 32.5c1.671 8.25 3.352 15.312 3.735 15.692.834.83 3.972.208 71.696-14.204 33.544-7.138 47.7-10.128 73-15.416 21.874-4.572 25.896-5.448 34.5-7.511 2.475-.593 9.9-2.173 16.5-3.511 6.6-1.337 21.675-4.505 33.5-7.039s26.675-5.697 33-7.029a4120.87 4120.87 0 0 0 21-4.488 1491.655 1491.655 0 0 1 19.094-3.993 991.43 991.43 0 0 0 19-4.049c5.173-1.167 17.731-3.856 27.906-5.975 10.175-2.12 29.3-6.161 42.5-8.981 41.866-8.944 51.548-11.01 71-15.147 10.45-2.222 23.95-5.085 30-6.362 34.986-7.383 51.512-10.889 64-13.578 15.633-3.366 22.671-4.866 53-11.294 11.55-2.448 23.58-4.968 26.733-5.6 3.152-.632 5.962-1.521 6.242-1.975.436-.705-3.147-18.858-8.986-45.54-2.26-10.325-6.485-30.524-7.151-34.189-.793-4.363-1.157-4.392-15.338-1.208-12.018 2.699-36.506 7.943-65 13.92-7.425 1.557-21.15 4.454-30.5 6.438-9.35 1.984-19.025 4.009-21.5 4.501-2.475.492-5.799 1.389-7.386 1.993-1.588.605-4.513 1.321-6.5 1.591-7.657 1.042-11.056 1.676-24.614 4.586-7.7 1.654-15.125 3.413-16.5 3.909-1.375.497-4.3 1.112-6.5 1.368s-7.375 1.212-11.5 2.125c-4.125.912-11.55 2.499-16.5 3.526a2219.64 2219.64 0 0 0-18 3.831c-4.95 1.08-18.9 4.025-31 6.544-12.1 2.519-23.8 5.02-26 5.557-2.2.537-12.775 2.806-23.5 5.041A6565.151 6565.151 0 0 0 663 893c-37.001 7.959-42.398 8.997-43.05 8.277-.388-.427-1.909-6.402-3.38-13.277a6881.746 6881.746 0 0 0-5.187-24c-1.381-6.325-3.134-14.65-3.894-18.5-.761-3.85-2.555-12.4-3.988-19-4.679-21.548-10.703-49.902-11.578-54.5-.472-2.475-1.563-7.65-2.425-11.5-1.576-7.036-4.945-22.804-12.395-58-2.212-10.45-5.798-27.325-7.97-37.5a26043.368 26043.368 0 0 1-14.212-67c-1.678-7.975-4.798-22.6-6.933-32.5-2.134-9.9-7.309-34.2-11.498-54-14.062-66.457-17.565-82.928-20.63-97-1.677-7.7-3.703-17.15-4.502-21-3.366-16.217-9.651-45.946-12.368-58.5-1.607-7.425-6.106-28.575-9.998-47-10.727-50.78-16.871-79.748-18.559-87.5-2.21-10.144-13.226-62.024-16.032-75.5-4.265-20.482-2.383-18.865-17.901-15.387M456.403 114c.276 1.375 1.871 8.8 3.544 16.5 4.92 22.644 19.106 89.23 21.092 99 1.006 4.95 3.182 15.3 4.835 23 1.653 7.7 3.509 16.475 4.125 19.5 1.305 6.411 5.208 24.613 8.04 37.5 1.088 4.95 3.057 14.175 4.375 20.5a9077.028 9077.028 0 0 0 7.665 36.5c1.051 4.95 3.286 15.525 4.966 23.5 1.68 7.975 4.145 19.45 5.479 25.5 1.333 6.05 4.024 18.65 5.981 28 1.956 9.35 4.877 23.075 6.49 30.5 3.075 14.152 8.091 37.871 13.006 61.5 1.602 7.7 4.311 20.525 6.021 28.5 1.709 7.975 4.392 20.575 5.961 28a10056.41 10056.41 0 0 0 5.968 28 9161.085 9161.085 0 0 1 5.543 26c1.335 6.325 3.133 14.65 3.996 18.5.863 3.85 1.986 9.25 2.496 12 .511 2.75 2.79 13.55 5.065 24 4.867 22.352 8.472 39.272 10.44 49 .779 3.85 3.271 15.55 5.538 26 2.268 10.45 5.193 24.175 6.5 30.5 1.308 6.325 3.551 16.9 4.985 23.5 3.915 18.012 10.419 48.925 12.249 58.216.89 4.519 2.196 8.438 2.902 8.709.706.271 8.608-1.051 17.559-2.938 38.289-8.071 45.601-9.635 51.767-11.071 3.58-.833 10.784-2.377 16.009-3.431a3193.882 3193.882 0 0 0 24-4.987c7.975-1.689 16.525-3.496 19-4.014 2.475-.518 8.775-1.865 14-2.993a7834.618 7834.618 0 0 1 44.5-9.44c21.127-4.415 46.089-9.735 57.5-12.255a2326.966 2326.966 0 0 1 25-5.332c7.425-1.537 15.525-3.257 18-3.824 2.475-.566 5.85-1.273 7.5-1.57 1.65-.297 10.425-2.152 19.5-4.121 16.184-3.513 30.212-6.496 56.843-12.088 14.417-3.026 14.618-3.531 2.157-5.42-3.025-.458-8.425-1.38-12-2.049-8.237-1.54-15.743-1.542-24-.006-3.575.665-8.75 1.538-11.5 1.941s-5.588 1.099-6.306 1.547c-1.336.832-9.146 2.331-17.194 3.299-2.475.298-5.021.964-5.657 1.48-1.082.877-4.541 1.668-16.843 3.852-8.017 1.423-15.762 3.076-19.071 4.071-1.689.508-4.45.924-6.136.924-1.685 0-4.353.672-5.929 1.494-1.575.821-4.525 1.496-6.555 1.5-2.03.003-3.969.456-4.309 1.006-.34.55-2.421 1-4.625 1-2.203 0-4.853.453-5.887 1.007-1.864.997-9.369 2.431-19.988 3.82-3.025.395-6.173 1.141-6.996 1.657-1.422.892-5.293 1.674-16.504 3.335-2.75.408-5.491 1.048-6.092 1.422-.601.375-3.751 1.172-7 1.771-10 1.843-14.652 2.826-21.408 4.525-3.575.899-8.525 2.016-11 2.482-6.374 1.199-13.979 2.949-17.571 4.045-1.689.515-4.862.936-7.05.936-2.188 0-4.46.481-5.047 1.068-.588.588-3.716 1.509-6.95 2.047-11.549 1.92-15.971 2.796-22.382 4.434-3.575.914-9.2 1.99-12.5 2.391-3.3.402-7.267 1.254-8.815 1.895-1.548.641-4.046 1.165-5.55 1.165-1.504 0-3.162.404-3.685.898-.522.493-2.75 1.136-4.95 1.428-3.472.462-7.763 1.386-19.698 4.242-3.47.83-8.744-1.468-9.336-4.068-.25-1.1-2.01-9.425-3.91-18.5-4.96-23.685-5.554-26.487-14.518-68.5-4.459-20.9-8.994-42.275-10.076-47.5-1.083-5.225-3.322-15.575-4.976-23-1.653-7.425-3.494-15.975-4.089-19-1.852-9.414-2.611-13.057-5.835-28l-4.204-19.5c-.592-2.75-1.428-6.8-1.857-9-.986-5.055-5.426-25.791-7.494-35-1.609-7.164-2.583-11.824-4.494-21.5-.598-3.025-2.208-10.675-3.578-17-1.37-6.325-2.962-13.975-3.538-17-.575-3.025-1.473-7.075-1.994-9-.522-1.925-1.878-8-3.013-13.5a4814.999 4814.999 0 0 0-10.9-51.5c-2.325-10.725-4.583-21.525-5.019-24-.435-2.475-1.524-7.65-2.42-11.5-.895-3.85-3.24-14.65-5.21-24-1.97-9.35-4.655-21.95-5.966-28a1571.95 1571.95 0 0 1-4.286-20.504c-1.045-5.227-3.552-16.927-5.569-26-2.018-9.073-4.497-20.771-5.509-25.996-1.013-5.225-3.706-18.05-5.985-28.5-2.279-10.45-4.543-21.025-5.032-23.5-6.973-35.308-11.514-54.897-14.024-60.5-.986-2.2-3.137-7.375-4.782-11.5-1.644-4.125-4.834-11.464-7.089-16.309-2.254-4.845-4.099-9.239-4.099-9.764 0-.525-.439-1.736-.975-2.691-2.286-4.074-6.025-12.714-6.025-13.923 0-.722-.414-1.313-.921-1.313-.506 0-1.238-1.448-1.627-3.217-.388-1.77-1.059-3.907-1.49-4.75-.867-1.695-4.875-10.507-7.363-16.184-.879-2.008-1.599-4.094-1.599-4.635 0-.542-.697-2.499-1.549-4.349-1.162-2.523-1.424-2.739-1.048-.865m-163.521 31.666c-.066.459-.046 1.231.044 1.717.7 3.798 6.328 30.992 7.992 38.617 1.706 7.814 3.593 16.757 7.599 36 .171.825.984 4.65 1.806 8.5l6.617 31c8.471 39.692 9.147 42.84 10.097 47 .503 2.2 2.744 12.775 4.981 23.5 2.237 10.725 5.645 26.925 7.574 36 1.928 9.075 4.632 21.9 6.01 28.5 1.377 6.6 2.914 13.8 3.414 16 .501 2.2 2.294 10.525 3.985 18.5 1.69 7.975 3.918 18.325 4.949 23 1.032 4.675 2.125 9.85 2.43 11.5.304 1.65 1.886 9.3 3.516 17 4.791 22.644 13.902 65.389 15.666 73.5a3877.137 3877.137 0 0 1 6.323 29.5c6.212 29.512 8.272 39.267 10.985 52 1.641 7.7 3.192 15.125 3.448 16.5.257 1.375 1.456 7 2.665 12.5 1.21 5.5 3.096 14.275 4.193 19.5a2531.058 2531.058 0 0 0 2.973 14 483.698 483.698 0 0 1 1.473 7c.272 1.375.954 4.525 1.515 7 .561 2.475 2.597 11.925 4.524 21 1.928 9.075 4.609 21.675 5.959 28 1.35 6.325 3.092 14.65 3.871 18.5 1.307 6.457 4.563 21.807 9.651 45.5 1.122 5.225 2.881 13.55 3.908 18.5 1.936 9.332 3.216 15.34 9.372 44 5.316 24.749 5.428 25.279 7.179 33.754 1.936 9.371 1.604 9.135 10.063 7.165 3.76-.876 9.086-1.986 11.836-2.468 2.75-.481 9.725-1.957 15.5-3.279 5.775-1.322 15.772-3.449 22.215-4.726 12.499-2.477 13.212-2.971 11.732-8.132-.521-1.815-.947-4.541-.947-6.057 0-3.295-2.025-3.563-9.591-1.268-2.7.819-7.481 1.494-10.624 1.5-6.565.013-7.179-.616-8.299-8.489-.391-2.75-1.531-8.15-2.534-12-1.003-3.85-2.794-12.175-3.981-18.5-1.186-6.325-2.536-13.075-2.999-15-.463-1.925-2.032-8.9-3.487-15.5-1.454-6.6-3.244-14.7-3.977-18-.732-3.3-1.874-9.15-2.535-13-.662-3.85-1.573-8.125-2.024-9.5-.451-1.375-1.565-6.325-2.474-11-.91-4.675-2.257-11.2-2.993-14.5-.736-3.3-1.853-8.7-2.483-12-.629-3.3-1.572-7.575-2.094-9.5-.996-3.668-4.197-18.588-6.545-30.5-2.037-10.333-2.836-14.115-7.398-35-2.282-10.45-4.5-21.025-4.929-23.5-.428-2.475-1.715-8.55-2.861-13.5-3.982-17.215-7.172-32.863-7.172-35.188 0-1.286-.435-3.121-.967-4.076-.532-.955-1.881-6.461-2.997-12.236-2.025-10.476-4.26-21.025-10.064-47.5-1.688-7.7-3.479-16.25-3.98-19-1.278-7.019-2.527-12.887-4.469-21-.921-3.85-1.901-8.125-2.177-9.5s-1.426-7-2.555-12.5c-1.129-5.5-2.389-11.8-2.801-14-.411-2.2-1.518-7.15-2.459-11-.941-3.85-2.102-9.025-2.58-11.5-.477-2.475-1.565-7.875-2.417-12a785.578 785.578 0 0 1-2.475-12.5c-.509-2.75-1.642-7.925-2.518-11.5-.875-3.575-2.009-8.75-2.518-11.5-.51-2.75-1.652-8.375-2.538-12.5-.886-4.125-1.835-9.075-2.11-11-.274-1.925-.893-4.4-1.374-5.5-.766-1.749-4.604-19.218-7.142-32.5-.472-2.475-1.29-6.75-1.816-9.5s-1.662-7.925-2.525-11.5-2.012-8.75-2.552-11.5-1.657-8.15-2.483-12c-.826-3.85-1.943-9.25-2.481-12-.539-2.75-1.669-7.925-2.511-11.5-.843-3.575-1.959-8.975-2.479-12-2.382-13.836-4.782-22.056-7.59-25.999-1.607-2.257-3.372-4.868-3.922-5.803-.55-.934-1.225-1.923-1.5-2.198-.275-.275-2.057-2.75-3.96-5.5s-3.815-5.15-4.25-5.333c-.434-.184-.79-.745-.79-1.249 0-.893-14.791-21.946-25.927-36.903-3.065-4.116-6.374-8.763-7.354-10.325-.979-1.562-2.702-3.819-3.828-5.015-1.126-1.196-4.263-5.475-6.969-9.509-2.707-4.033-4.975-6.958-5.04-6.5M991 946.13c-3.025.522-7.75 1.202-10.5 1.512-2.75.31-5.498.969-6.107 1.464-1.236 1.006-8.316 2.675-15.893 3.747-2.75.389-5.607 1.085-6.35 1.548-.742.462-3.892 1.221-7 1.687-10.541 1.578-15.643 2.619-18.465 3.767-1.548.63-4.334 1.145-6.191 1.145-1.857 0-3.654.45-3.994 1-.34.55-2.196 1-4.125 1-1.928 0-4.353.453-5.387 1.007-1.743.932-5.719 1.721-19.988 3.966-6.179.972-13.971 2.688-18.571 4.091-1.689.515-4.081.936-5.316.936-1.234 0-3.057.435-4.049.966-1.667.892-5.341 1.691-18.564 4.035-2.75.488-7.925 1.626-11.5 2.529s-8.527 1.958-11.004 2.345c-2.478.387-5.037 1.032-5.686 1.434-.65.401-4.248 1.176-7.996 1.721-9.372 1.364-15.674 2.585-23.314 4.514-3.575.903-8.75 1.951-11.5 2.329-2.75.378-5.588 1.053-6.306 1.501-.719.448-3.869 1.242-7 1.766-12.841 2.148-15.963 2.777-21.694 4.373-3.3.919-8.027 1.985-10.504 2.368-2.478.384-5.11 1.072-5.85 1.529-1.274.787-6.675 1.748-19.146 3.405-3.025.402-6.064 1.085-6.753 1.519-.689.433-3.614 1.233-6.5 1.778-12.088 2.282-14.462 2.767-18.747 3.824-10.019 2.471-13.176 3.064-16.314 3.064-1.807 0-3.713.415-4.236.923-.872.847-3.975 1.619-16.45 4.092-11.389 2.257-15.722 3.205-18.571 4.061-1.689.508-4.756.924-6.816.924-2.059 0-4.645.482-5.745 1.071-2.042 1.093-8.425 2.477-17.368 3.768-2.75.396-5.52 1.045-6.156 1.442-.636.397-4.011 1.192-7.5 1.767-13.209 2.179-16.512 2.842-22.344 4.484-3.3.929-7.8 1.915-10 2.191-2.2.276-4.554.949-5.231 1.496-1.121.905-5.741 1.753-18.269 3.353-2.475.316-5.4.985-6.5 1.487-1.843.842-6.949 1.885-18.504 3.78-2.478.407-5.023 1.06-5.657 1.451-.633.392-3.781 1.137-6.995 1.655-17.471 2.82-18.787 3.712-37.844 25.636-3.3 3.796-10.626 11.58-16.28 17.298-5.654 5.717-10.043 10.632-9.754 10.921.467.466 12.836-1.997 39.534-7.873 13.066-2.876 45.343-9.757 56.5-12.045 5.5-1.128 15.85-3.342 23-4.921 12.68-2.799 17.693-3.857 57-12.03 10.45-2.173 23.95-5.058 30-6.41 6.05-1.353 17.75-3.84 26-5.527 19.628-4.014 23.905-4.926 30.5-6.501 3.025-.722 7.3-1.61 9.5-1.971 2.2-.362 7.6-1.508 12-2.546 4.4-1.038 9.35-2.089 11-2.336 1.65-.247 8.4-1.636 15-3.088 23.065-5.075 34.098-7.441 47-10.081 7.15-1.463 15.758-3.3 19.128-4.081 5.713-1.326 33.208-7.149 53.872-11.41 8.677-1.789 17.3-3.657 37.5-8.122 5.225-1.155 11.525-2.441 14-2.858 2.475-.417 9-1.759 14.5-2.983 15.462-3.442 16.081-3.576 31.5-6.833a62018.14 62018.14 0 0 0 24-5.073c5.225-1.106 10.625-2.209 12-2.452 1.375-.243 4.3-.917 6.5-1.498 2.2-.58 9.625-2.188 16.5-3.572 20.397-4.105 50.332-10.588 50.73-10.986.204-.203-2.015-1.831-4.93-3.617-2.915-1.787-5.525-3.547-5.8-3.912-.275-.365-3.65-2.624-7.5-5.021-3.85-2.396-7.225-4.642-7.5-4.991-.275-.35-4.325-3.047-9-5.994-9.291-5.858-12.495-6.577-22-4.938m50 33.941c-4.125.955-18.525 4.04-32 6.856-13.475 2.816-30.575 6.441-38 8.057-20.05 4.362-52.324 11.238-53.721 11.444-.672.1-1.534.494-1.917.876-.382.383-1.772.696-3.088.696-1.553 0-2.142.405-1.679 1.155.396.64.279.885-.263.55-1.503-.929-27.795 3.864-53.832 9.813-1.1.251-4.475.948-7.5 1.549-3.025.6-7.3 1.502-9.5 2.003-2.2.501-10.75 2.307-19 4.014-25.142 5.201-36.487 7.595-48.5 10.236a2061.33 2061.33 0 0 1-24.5 5.185c-7.15 1.462-19.75 4.156-28 5.987-8.25 1.831-19.725 4.299-25.5 5.485-5.775 1.185-14.1 2.999-18.5 4.029-4.4 1.031-11.6 2.559-16 3.396-10.131 1.929-54.243 11.273-100 21.184-14.3 3.097-29.255 6.242-33.234 6.989-3.978.747-11.178 2.262-16 3.368A942.765 942.765 0 0 1 492 1096.89c-5.225 1.065-22.55 4.708-38.5 8.095-15.95 3.387-32.984 6.998-37.854 8.024-4.87 1.026-9.074 2.086-9.344 2.355-.269.269.647 5.585 2.035 11.813 5.705 25.599 9.053 41.14 12.025 55.823l3.138 15.5 4-.177c2.2-.097 19.975-3.619 39.5-7.825 19.525-4.206 39.55-8.471 44.5-9.477 9.988-2.03 40.493-8.49 59-12.495 6.6-1.428 21.45-4.575 33-6.993 11.55-2.417 26.175-5.533 32.5-6.923a2383.2 2383.2 0 0 1 21.5-4.61c5.5-1.145 11.8-2.507 14-3.027 2.2-.521 13.9-3.021 26-5.557 12.1-2.535 26.95-5.659 33-6.94 6.05-1.282 19.775-4.17 30.5-6.418 10.725-2.249 25.8-5.455 33.5-7.126 7.7-1.671 18.275-3.932 23.5-5.026 5.225-1.093 11.3-2.413 13.5-2.933 2.2-.521 13.9-3.016 26-5.546 12.1-2.53 26.95-5.649 33-6.93 35.78-7.577 54.239-11.514 56-11.944 1.1-.268 10.55-2.28 21-4.471 10.45-2.191 30.7-6.498 45-9.571 23.323-5.012 38.668-8.245 49.79-10.492 2.084-.421 4.064-1.04 4.4-1.376.336-.336-2.399-14.681-6.078-31.877a44112.109 44112.109 0 0 1-8.813-41.266c-1.168-5.5-2.388-10.262-2.711-10.583-.323-.321-3.963.198-8.088 1.154" fill-rule="evenodd"/><path fill="#6f74ac" stroke="#6f74ac" d="M426 113.077a17975.67 17975.67 0 0 1-40 8.529c-9.625 2.036-17.815 3.97-18.2 4.298-.385.328-.24 2.621.323 5.096 1.744 7.676 4.801 21.896 7.847 36.5 3.063 14.684 7.147 33.821 11.525 54 1.432 6.6 3.666 17.175 4.965 23.5 1.299 6.325 4.242 20.275 6.539 31 2.298 10.725 4.989 23.325 5.981 28 .992 4.675 3.457 16.15 5.478 25.5 2.02 9.35 4.31 20.375 5.089 24.5.779 4.125 2.124 10.425 2.988 14 .865 3.575 3.553 15.95 5.973 27.5a7376.857 7376.857 0 0 0 10.63 50 2681.31 2681.31 0 0 1 3.799 18c4.652 22.511 12.641 59.928 14.092 66 .526 2.2 3.019 13.9 5.54 26 2.522 12.1 6.832 32.575 9.579 45.5a492335.657 492335.657 0 0 1 15.298 72c1.462 6.875 4.882 23.075 7.602 36 2.719 12.925 5.671 26.65 6.559 30.5.888 3.85 2.869 13.075 4.401 20.5 4.887 23.672 11.784 56.19 14 66 1.181 5.225 2.768 12.65 3.527 16.5 1.478 7.488 4.199 20.253 8.102 38 1.33 6.05 3.052 14.15 3.825 18 .773 3.85 2.084 10.15 2.914 14 1.93 8.959 2.519 8.509-16.376 12.494-8.525 1.798-16.175 3.609-17 4.025-.825.415-3.525 1.026-6 1.356-5.555.742-17.833 3.19-28.677 5.719-4.498 1.048-8.606 1.906-9.129 1.906-1.417 0-2.813-4.312-5.181-16-1.169-5.775-4.324-20.85-7.01-33.5-2.685-12.65-6.721-31.775-8.967-42.5-2.247-10.725-4.52-21.3-5.052-23.5-.531-2.2-3.197-14.575-5.924-27.5a24818.296 24818.296 0 0 0-11.529-54.225c-3.614-16.898-8.33-39.173-10.479-49.5-2.15-10.326-4.858-23.05-6.019-28.275a1990.831 1990.831 0 0 1-4.503-21 8272.06 8272.06 0 0 0-5.9-28c-1.928-9.075-5.315-25.05-7.527-35.5-2.212-10.45-6.091-28.675-8.62-40.5-2.529-11.825-5.198-24.425-5.932-28-.733-3.575-4.559-21.575-8.501-40-3.942-18.425-8.69-40.7-10.55-49.5-6.844-32.364-11.497-54.296-14.004-66a7783.56 7783.56 0 0 1-7.05-33.5c-2.464-11.825-5.588-26.45-6.943-32.5-1.355-6.05-6.107-28.325-10.561-49.5-4.453-21.175-8.972-42.55-10.041-47.5-1.069-4.95-3.73-17.523-5.913-27.94-2.182-10.417-4.367-19.339-4.856-19.828-.516-.516-3.76-.203-7.759.75-7.982 1.9-11.561 2.671-27.873 6.001-6.6 1.347-16.05 3.397-21 4.555-4.95 1.158-10.125 2.317-11.5 2.575-9.379 1.76-13.999 2.676-13.996 2.774.027.791 5.78 28.469 8.962 43.113 2.27 10.45 5.873 27.325 8.006 37.5s5.751 27.275 8.039 38a8165.31 8165.31 0 0 1 7.584 36c4.192 20.2 9.811 46.424 12.533 58.5 1.116 4.95 3.388 15.525 5.048 23.5 3.293 15.813 3.111 14.95 8.31 39.5 1.981 9.35 5.117 24.2 6.971 33 1.853 8.8 4.537 21.4 5.963 28 1.427 6.6 3.071 14.25 3.655 17 .584 2.75 2.172 10.175 3.53 16.5 1.358 6.325 3.135 14.875 3.949 19 .815 4.125 1.917 9.3 2.45 11.5 1.195 4.934 4.706 21.442 9.464 44.5 1.987 9.625 4.033 19.3 4.549 21.5.515 2.2 2.324 10.525 4.02 18.5 1.696 7.975 4.385 20.575 5.975 28 5.44 25.4 14.707 69.096 18.981 89.5 1.613 7.7 4.553 21.425 6.534 30.5 1.98 9.075 4.198 19.65 4.928 23.5.729 3.85 1.857 9.25 2.507 12 .649 2.75 2.694 12.2 4.543 21 1.85 8.8 5 23.65 7 33a18832.08 18832.08 0 0 1 14.406 68c1.729 8.25 3.786 17.925 4.57 21.5.784 3.575 2.329 10.775 3.432 16 5.512 26.096 10.281 47.504 10.752 48.266.289.468 1.945.574 3.68.234 4.257-.832 24.499-5.181 33.155-7.124 3.85-.864 13.3-2.866 21-4.449 15.358-3.158 23.718-4.933 48.5-10.3 9.075-1.966 20.1-4.301 24.5-5.19 4.4-.889 9.575-1.982 11.5-2.427 1.925-.446 10.025-2.172 18-3.837a3022.842 3022.842 0 0 0 26-5.555c6.325-1.391 32.875-7.042 59-12.559 26.125-5.516 50.631-10.746 54.457-11.62 3.827-.875 15.527-3.391 26-5.592 31.949-6.712 45.234-9.514 65.043-13.718l38.5-8.168c10.725-2.275 23.55-5.009 28.5-6.076 4.95-1.067 15.3-3.263 23-4.88 29.716-6.239 42.341-8.939 51.5-11.012 5.225-1.182 15.8-3.428 23.5-4.989 17.592-3.567 38.742-8.064 53-11.271 6.05-1.36 15.149-3.26 20.221-4.221 14.082-2.67 13.463 2.25 4.78-38.012-1.423-6.6-4.09-19.269-5.926-28.153-1.835-8.885-3.673-16.697-4.083-17.36-.87-1.408-1.145-1.368-23.992 3.54-9.35 2.009-21.95 4.699-28 5.978l-30 6.342c-40.257 8.51-47.968 10.199-58 12.71-1.1.275-5.776 1.176-10.39 2.001-4.615.826-14.29 2.808-21.5 4.405a1467.717 1467.717 0 0 1-26.11 5.484c-7.15 1.419-14.575 3.014-16.5 3.544-1.925.53-8.9 2.071-15.5 3.425-21.007 4.308-64.763 13.549-71.528 15.106-3.591.826-10.791 2.359-16 3.405-5.21 1.046-18.022 3.762-28.472 6.035-10.45 2.273-23.05 4.973-28 6a3961.28 3961.28 0 0 0-14.802 3.101c-7.057 1.501-7.07 1.488-9.173-8.563-4.848-23.168-9.695-46.063-11.539-54.5a2770.33 2770.33 0 0 1-3.966-18.5l-5.88-28c-2.194-10.45-5.178-24.4-6.631-31-1.453-6.6-3.335-15.375-4.181-19.5-.847-4.125-1.888-9.075-2.314-11-.427-1.925-1.92-8.9-3.32-15.5s-3.714-17.4-5.142-24c-1.429-6.6-3.919-18.3-5.534-26-5.337-25.45-8.821-41.901-10.482-49.5-.901-4.125-3.615-16.95-6.029-28.5a9313.629 9313.629 0 0 0-13.489-63.5 6991.916 6991.916 0 0 1-7.01-33c-3.37-16.065-10.311-48.744-21.136-99.5-1.642-7.7-3.82-18.05-4.841-23-1.895-9.196-8.404-39.827-11.899-56-1.07-4.95-4.022-18.9-6.561-31-2.539-12.1-5.695-26.95-7.013-33a3051.18 3051.18 0 0 1-4.997-23.5c-1.43-6.875-3.034-14.3-3.563-16.5-.53-2.2-2.805-12.775-5.057-23.5-14.104-67.197-15.897-75.363-16.702-76.085-.407-.365-10.864 1.508-23.239 4.162m608 869.473c-5.775 1.247-19.05 4.089-29.5 6.316a12125.41 12125.41 0 0 0-28.5 6.106c-10.105 2.188-24.636 5.26-45 9.512-6.875 1.436-14.3 3.115-16.5 3.732-2.2.616-4.579 1.233-5.286 1.369-.707.137-3.407.72-6 1.296-2.593.576-10.954 2.222-18.58 3.658-7.626 1.435-15.951 3.217-18.5 3.958-2.549.742-7.109 1.808-10.134 2.369-5.109.948-29.492 6.026-70.501 14.682-9.349 1.973-19.024 3.959-21.499 4.414-5.257.965-39.649 8.58-45.5 10.074-6.218 1.588-7.629 1.887-11.96 2.532-2.222.331-11.465 2.168-20.54 4.083a6318.598 6318.598 0 0 1-24 5.02c-4.125.847-9.075 1.898-11 2.336-1.925.438-12.05 2.603-22.5 4.812a8337.48 8337.48 0 0 0-29 6.177c-24.609 5.32-28.26 6.104-32.5 6.977-2.475.509-11.025 2.324-19 4.033-7.975 1.708-23.05 4.908-33.5 7.111-10.45 2.202-27.1 5.728-37 7.834-9.9 2.107-25.65 5.444-35 7.416-25.585 5.396-34.63 7.429-35.087 7.887-.462.462.005 2.909 4.535 23.746 1.734 7.975 3.571 16.525 4.082 19 .51 2.475 1.862 8.775 3.003 14 1.142 5.225 2.79 12.987 3.664 17.25 1.338 6.53 1.9 7.75 3.572 7.75 1.637 0 58.453-11.784 72.231-14.982 2.2-.51 10.3-2.261 18-3.891 7.7-1.63 20.525-4.356 28.5-6.058 7.975-1.702 33.625-7.125 57-12.052 23.375-4.926 47.675-10.086 54-11.466 6.325-1.379 19.15-4.099 28.5-6.043 9.35-1.945 18.8-3.974 21-4.51 2.2-.536 13-2.812 24-5.059 11-2.246 23.629-4.939 28.063-5.984 4.435-1.044 16.135-3.546 26-5.558 9.866-2.013 19.512-4.008 21.437-4.434 4.22-.933 24.686-5.326 50.5-10.838 10.45-2.232 24.4-5.221 31-6.642 6.6-1.421 15.15-3.179 19-3.907 3.85-.727 12.175-2.468 18.5-3.868 22.778-5.041 36.572-8.016 40.5-8.734 2.2-.402 10.525-2.145 18.5-3.873 22.759-4.932 51.169-10.986 67-14.278 7.975-1.659 14.847-3.342 15.272-3.741.424-.399-3.142-19.031-7.924-41.404-8.123-38-8.832-40.669-10.772-40.537-1.142.078-6.801 1.162-12.576 2.409" fill-rule="evenodd"/></svg>