<svg xmlns="http://www.w3.org/2000/svg" viewBox="0 0 1280 1280" fill-rule="evenodd" xmlns:v="https://vecta.io/nano"><path fill="#fbfcfc" stroke="#fbfcfc" d="M440.5 105.185c-2.9.979-5.15 1.456-18 3.817-3.3.606-6.428 1.529-6.95 2.05s-1.991.948-3.264.948-3.095.427-4.05.949-4.661 1.469-8.236 2.104l-11.5 2.1c-2.75.52-8.153 1.291-12.006 1.713-10.876 1.192-16.028 5.84-13.764 12.42a62.48 62.48 0 0 1 1.803 6.714c.384 1.925 1.041 3.95 1.46 4.5s1.018 3.475 1.33 6.5c.736 7.137 2.436 14.992 3.548 16.393.483.609 1.121 2.457 1.418 4.107s1.282 5.925 2.187 9.5a140.5 140.5 0 0 1 2.52 13c1.552 11.548 2.815 18.824 3.853 22.199.559 1.816 1.543 5.326 2.187 7.801s1.799 6.315 2.567 8.533 1.397 5.342 1.397 6.94c0 3.896 1.783 13.766 3.708 20.527 2.843 9.982 3.204 11.434 4.722 19 .827 4.125 1.711 10.453 1.963 14.063.387 5.531 2.799 15.003 5.333 20.937.982 2.302 3.276 12.812 4.255 19.5 1.517 10.368 3.098 18.818 3.701 19.795.32.517 1 2.575 1.511 4.573 2.954 11.554 4.052 17.578 4.671 25.632.381 4.95.98 9.46 1.332 10.021s.934 3.037 1.295 5.5 1.073 4.906 1.583 5.429.926 1.991.926 3.264.412 3.095.915 4.05c1.546 2.934 3.925 14.365 4.524 21.736.312 3.85 1.284 9.475 2.16 12.5s1.807 6.85 2.071 8.5.748 3.675 1.077 4.5c1.454 3.645 3.43 13.111 4.197 20.113.459 4.187 1.093 8.462 1.409 9.5s.834 3.411 1.15 5.275 1.007 4.196 1.536 5.184.961 3.15.961 4.803.45 3.285 1 3.625 1.016 1.829 1.035 3.309.679 3.816 1.465 5.191 1.445 4.048 1.465 5.94c.045 4.452 1.759 14.092 3.743 21.06a971.71 971.71 0 0 1 2.384 8.5l2.363 8.188c.85 2.853 1.545 7.888 1.545 11.188 0 5.86 2.156 17.631 3.96 21.624.497 1.1 1.121 3.35 1.387 5s1.226 5.925 2.134 9.5 2.012 9.65 2.453 13.5c.828 7.225 2.602 15.5 4.074 19 .463 1.1 1.118 3.35 1.456 5s1.299 5.925 2.136 9.5 1.915 9.842 2.396 13.927 1.138 8.47 1.458 9.745.639 2.659.708 3.074 1.147 3.569 2.395 7.01 2.586 8.166 2.972 10.5 1.065 4.935 1.508 5.78.922 4.444 1.066 8 .592 7.589.994 8.964l2.433 8.5c.936 3.3 2.045 6.9 2.465 8 1.537 4.034 3.176 13.238 4.007 22.5.469 5.225 1.592 12.2 2.496 15.5s1.87 7.35 2.147 9 .773 3.675 1.102 4.5c1.355 3.397 3.407 12.944 4.205 19.562.467 3.884 1.308 8.722 1.869 10.75s.813 3.688.563 3.688.024.894.608 1.986 1.471 3.904 1.969 6.25 1.635 7.189 2.528 10.764 2.045 10.1 2.56 14.5 1.206 8.675 1.534 9.5.79 2.625 1.027 4 .82 3.4 1.296 4.5 1.414 4.025 2.083 6.5c1.712 6.327 3.974 13.104 5.258 15.75 2.074 4.278-.679 7.25-6.716 7.25-2.822 0-5.558.392-6.081.871s-3.343 1.137-6.267 1.461l-5.318.59-1.481-3.546c-.815-1.95-1.882-6.32-2.371-9.711s-1.312-7.965-1.829-10.165l-2.061-8.75c-2.586-10.941-3.123-13.974-3.123-17.642 0-2.125-.675-5.479-1.5-7.454s-1.5-4.928-1.5-6.563-.45-3.251-1-3.591-1-2.137-1-3.994-.489-4.643-1.086-6.191c-1.159-3.005-2.516-9.392-3.892-18.315-.812-5.269-2.146-10.971-4.109-17.571-.502-1.689-.913-4.247-.913-5.685s-.515-3.881-1.145-5.429c-1.092-2.685-1.938-6.707-3.748-17.815-.448-2.75-1.376-7.25-2.062-10-4.274-17.128-6.699-28.693-7.863-37.5-.4-3.025-1.082-6.064-1.516-6.753-.728-1.158-1.47-4.525-3.578-16.247-.89-4.944-2.754-12.79-4.175-17.571-.502-1.689-.913-4.574-.913-6.412 0-2.968-1.054-7.516-4.078-17.588-.507-1.689-.922-4.124-.922-5.412 0-2.086-1.246-7.154-4.078-16.588-.507-1.689-.922-4.697-.922-6.685s-.515-4.881-1.145-6.429-1.547-5.065-2.039-7.815l-1.775-10c-.875-4.969-2.38-11.196-4.128-17.071-.502-1.689-.913-4.756-.913-6.816s-.537-4.727-1.193-5.929-1.535-4.209-1.954-6.684c-1.709-10.103-4.37-21.588-5.976-25.797-.483-1.263-.877-4.54-.877-7.282s-.675-6.601-1.5-8.575-1.5-4.891-1.5-6.482-.402-3.673-.894-4.628-1.409-4.211-2.039-7.236a763.13 763.13 0 0 0-2.158-10c-.558-2.475-1.376-7.251-1.819-10.614s-1.12-6.626-1.507-7.252c-.653-1.056-1.422-4.606-3.495-16.134-.89-4.944-2.754-12.79-4.175-17.571-.502-1.689-.929-4.839-.948-7s-.679-5.054-1.465-6.429-1.445-4.386-1.465-6.691-.485-4.469-1.035-4.809-1-2.362-1-4.494-.515-5.143-1.145-6.691-1.547-5.065-2.039-7.815l-1.775-10c-.484-2.75-1.412-7.025-2.061-9.5a310.628 310.628 0 0 1-1.98-8 605.792 605.792 0 0 0-2.03-8.5c-1.89-7.665-2.998-13.413-3.88-20.114-.442-3.362-1.188-6.735-1.658-7.495s-1.209-3.522-1.643-6.137c-2.051-12.358-3.684-19.953-5.876-27.325-.502-1.689-.913-4.741-.913-6.782s-.675-5.327-1.5-7.301-1.5-4.741-1.5-6.147-.421-3.939-.936-5.628c-1.624-5.326-4.516-18.872-5.673-26.571-.533-3.549-3.065-9.547-4.891-11.587-.55-.614-2.8-3.682-5-6.818s-5.458-7.589-7.24-9.898-3.245-4.554-3.25-4.99c-.009-.73-7.636-11.567-8.943-12.707-.316-.275-4.045-5.675-8.287-12s-8.75-12.625-10.017-14C312.735 170.713 295 146.104 295 145.189c0-.39-1.143-1.942-2.54-3.449-2.816-3.037-8.002-3.673-13.145-1.612-1.548.62-4.615 1.536-6.815 2.035-11.499 2.607-19.512 4.126-24 4.549-2.75.26-5.427.881-5.95 1.38s-2.322.906-4 .903c-2.808-.004-10.232 2.045-15.05 4.154-1.1.481-5.468 1.051-9.708 1.265-15.027.759-16.969 4.576-10.982 21.586 2.219 6.302 3.487 11.419 4.215 17 1.562 11.98 2.83 18.255 3.907 19.332.587.587 1.068 2.301 1.068 3.809s.45 3.019 1 3.359 1 1.956 1 3.591.675 4.589 1.5 6.563 1.5 5.531 1.5 7.903.425 5.431.945 6.797 1.04 5.459 1.158 9.094.818 7.773 1.556 9.195 1.341 4.308 1.341 6.412.45 4.105 1 4.445 1.003 2.054 1.006 3.809.679 4.48 1.5 6.055 1.494 4.694 1.494 6.929.411 5.447.913 7.136c1.898 6.38 3.289 12.197 3.785 15.827.282 2.066.916 4.005 1.408 4.309s.914 2.214.938 4.244.692 5.491 1.485 7.691 1.448 6.167 1.456 8.816.415 5.573.903 6.5 1.198 4.38 1.577 7.674 1.047 6.445 1.486 7 1.029 2.36 1.312 4.01 1.276 5.475 2.208 8.5 2.062 7.975 2.512 11c2.06 13.84 3.104 19.294 4.024 21.013.546 1.021.993 2.935.993 4.255s.337 2.736.749 3.147c.914.914 3.01 11.536 4.201 21.293.484 3.964 1.095 7.564 1.358 8s.774 3.011 1.137 5.723.869 5.269 1.125 5.683.877 2.695 1.381 5.069 1.638 7.242 2.523 10.817c2.616 10.578 3.562 15.134 4.554 21.933.516 3.539 1.396 6.891 1.955 7.45s1.017 2.133 1.017 3.496.421 3.861.936 5.55c1.55 5.082 3.187 12.715 4.091 19.071 1.848 12.988 3.046 18.973 3.989 19.916.541.541.984 2.169.984 3.617s.337 2.971.749 3.383c1.493 1.493 3.847 12.512 6.053 28.334.44 3.163 1.31 7.325 1.932 9.25 1.158 3.587 2.227 7.71 4.275 16.5 1.13 4.851 1.663 8.273 3.878 24.921.58 4.356 1.517 8.383 2.084 8.95S302 642.81 302 644.533s.33 3.464.734 3.868c.881.881 3.056 9.976 4.21 17.599 1.784 11.791 3.212 18.54 4.114 19.45.518.523.942 2.12.942 3.55s.414 3.027.92 3.55 1.037 2.975 1.179 5.45.701 5.625 1.242 7 1.328 5.65 1.749 9.5c.722 6.611 2.275 13.919 4.887 23 2.373 8.25 4.219 16.173 5.009 21.5 2.06 13.893 3.119 19.425 3.909 20.422.469.593 1.106 2.428 1.414 4.078s1.286 6.375 2.172 10.5 2.006 10.425 2.487 14c1.47 10.91 3.076 19.213 4.078 21.087.525.98.954 2.942.954 4.361s.402 3.361.894 4.316c1.103 2.142 2.964 10.806 6.065 28.236.637 3.575 1.581 6.927 2.099 7.45s.942 1.841.942 2.929.411 3.361.913 5.05c2.677 9.006 4.114 16.4 6.128 31.538.547 4.107 1.436 7.91 1.976 8.45s.983 2.168.983 3.616.337 2.971.749 3.383c1.019 1.019 3.227 9.778 4.306 17.084l1.793 12c.499 3.3 1.801 8.475 2.893 11.5 2.386 6.61 4.144 14.382 5.092 22.5.385 3.3.992 6.459 1.35 7.02s.76 3.711.893 7 .686 7.105 1.228 8.48 1.341 4.525 1.775 7c1.43 8.152 2.894 14.469 3.824 16.5.504 1.1 1.158 2.763 1.454 3.695.894 2.817 6.805 3.245 14.365 1.04 3.728-1.087 10.153-2.51 14.278-3.162s11.775-2.28 17-3.618c11.713-2.999 20.375-4.907 29.5-6.498 3.85-.671 10.375-2.105 14.5-3.186 6.632-1.738 15.401-3.749 23-5.275 1.375-.276 5.425-.973 9-1.548s8.525-1.533 11-2.128 6.3-1.446 8.5-1.89l11-2.379c7.209-1.618 15.168-2.973 26.5-4.51 3.575-.485 7.85-1.34 9.5-1.9s5.025-1.527 7.5-2.148a180.747 180.747 0 0 0 9-2.567c2.475-.79 5.954-1.434 7.731-1.431 3.991.006 16.385-1.764 21.769-3.108l7.5-1.847c1.925-.466 6.2-1.632 9.5-2.591s8.475-2.093 11.5-2.52c5.788-.817 9.95-1.789 19-4.434 13.028-3.809 20.616-5.498 24.91-5.545 4.226-.047 14.812-2.163 24.59-4.916 7.363-2.072 16.949-4.242 22.5-5.093 16.415-2.514 19.034-2.987 21.169-3.821 2.264-.885 3.57-1.248 16.397-4.556 3.336-.86 7.717-1.564 9.735-1.564 3.829 0 6.308-.47 21.199-4.019l12.5-2.94a826.827 826.827 0 0 0 8-1.878c2.475-.595 7.2-1.599 10.5-2.231s8.025-1.749 10.5-2.482c4.286-1.27 22.829-5.594 26-6.063 8.1-1.199 16.296-2.652 20-3.546a962.058 962.058 0 0 1 8-1.891l10.5-2.504c3.85-.934 9.7-2.051 13-2.481 11.802-1.537 19.054-2.841 22.5-4.045l5-1.744c4.349-1.511 13.204-3.327 18.5-3.794 3.3-.29 7.575-.943 9.5-1.45s5.3-.921 7.5-.921c3.464-.001 8.302-1.214 16-4.011 8.19-2.976 12.757-4.009 17.703-4.005 8.385.007 14.797-3.205 14.797-7.414 0-1.16-.948-4.578-2.106-7.595s-2.461-7.286-2.895-9.486l-2.991-15-3.199-16.5c-.549-3.025-1.577-7.3-2.283-9.5s-1.824-6.7-2.483-10c-3.241-16.238-4.544-18.836-10.043-20.028-1.375-.298-3.882-.976-5.571-1.507s-4.981-.965-7.316-.965-5.195-.508-6.356-1.13c-4.566-2.444-27.274-4.753-29.07-2.957-.598.598-3.147 1.087-5.664 1.087s-5.469.624-6.558 1.387-4.227 1.635-6.973 1.938c-10.636 1.174-17.744 2.527-18.795 3.578-.603.603-2.438 1.097-4.076 1.097s-4.361.411-6.05.913c-6.556 1.95-12.292 3.296-17.571 4.121-13.081 2.047-16.865 2.824-18.806 3.862-1.135.607-3.866 1.104-6.069 1.104s-4.285.45-4.625 1-2.137 1-3.994 1-4.643.519-6.191 1.152-5.065 1.513-7.815 1.954c-14.212 2.278-16.85 2.844-17.832 3.826-.587.587-3.426 1.068-6.309 1.068s-5.519.45-5.859 1-2.181 1-4.091 1-5.089.675-7.063 1.5-5.534 1.5-7.909 1.5-4.597.45-4.937 1-2.181 1-4.091 1-5.089.675-7.063 1.5-5.309 1.5-7.409 1.5-4.097.45-4.437 1-2.054 1.003-3.809 1.006-4.48.679-6.055 1.5-4.812 1.494-7.191 1.494-4.605.45-4.945 1-2.279 1.003-4.309 1.006-4.98.679-6.555 1.5-4.812 1.494-7.191 1.494-4.605.45-4.945 1-2.661 1-5.158 1-5.958.644-7.691 1.432-5.176 1.652-7.651 1.922c-7.585.826-15.278 2.524-16.366 3.612-.569.569-3.05 1.034-5.513 1.034s-5.861.411-7.55.913c-5.97 1.776-12.13 3.258-17.071 4.108l-12.704 2.235c-8.233 1.47-10.796.926-10.796-2.291 0-1.998-1.028-7.129-2.999-14.965-2.283-9.078-3.157-13.642-3.832-20-.379-3.575-1.118-7.173-1.64-7.996s-1.278-3.522-1.678-6c-1.316-8.149-2.346-12.406-5.943-24.575-.499-1.689-.908-4.981-.908-7.316s-.497-5.172-1.104-6.307-1.524-4.592-2.039-7.684c-1.906-11.458-2.594-14.689-3.712-17.437-.63-1.548-1.145-4.109-1.145-5.691s-.45-3.154-1-3.494-1-2.871-1-5.625-.497-5.934-1.104-7.069-1.486-4.367-1.953-7.184c-1.811-10.908-2.842-15.564-3.872-17.49-.589-1.1-1.071-3.579-1.071-5.507s-.45-3.785-1-4.125-1-2.812-1-5.494-.515-6.143-1.145-7.691c-1.081-2.657-1.532-4.721-3.678-16.815-.488-2.75-1.402-6.267-2.032-7.815S595 661.351 595 659.494s-.45-3.654-1-3.994-1.016-2.954-1.035-5.809-.679-6.316-1.465-7.691-1.445-4.386-1.465-6.691-.485-4.469-1.035-4.809-1-2.112-1-3.937-.675-4.934-1.5-6.909-1.5-4.928-1.5-6.563-.45-3.251-1-3.591-1-2.871-1-5.625-.54-5.989-1.2-7.191-1.54-4.434-1.954-7.184c-1.726-11.451-2.702-16.458-3.443-17.657-.959-1.551-2.295-8.306-3.235-16.343-.385-3.3-1.058-6.564-1.495-7.253-.735-1.158-1.473-4.506-3.585-16.247-.89-4.944-2.754-12.79-4.175-17.571-.502-1.689-.913-4.756-.913-6.816s-.537-4.727-1.193-5.929c-1.136-2.081-1.479-3.656-3.674-16.878-.52-3.131-1.298-6.265-1.73-6.963-.959-1.551-2.295-8.306-3.235-16.343-.385-3.3-1.073-6.588-1.528-7.306s-1.217-3.644-1.693-6.5c-1.754-10.526-2.586-14.301-3.467-15.726-.917-1.484-1.912-6.657-3.367-17.5-.445-3.318-1.328-7.001-1.961-8.185S540 402.896 540 401.387s-.411-4.127-.913-5.816c-2.238-7.53-3.918-15.415-5.98-28.071-.835-5.129-2.576-12.629-4.194-18.071-.502-1.689-.913-4.247-.913-5.685s-.512-3.881-1.137-5.429c-1.365-3.38-2.683-9.643-3.773-17.929-.442-3.362-1.188-6.735-1.658-7.495s-1.191-3.409-1.604-5.887l-1.685-10.126c-.515-3.092-1.432-6.55-2.039-7.684S515 285.617 515 283.766s-.41-3.794-.912-4.316-1.125-3.425-1.386-6.45-1.021-7.525-1.689-10a257.44 257.44 0 0 1-2.013-8 310.628 310.628 0 0 0-1.98-8c-1.277-4.865-2.429-11.013-3.855-20.573-.498-3.34-1.414-7.023-2.035-8.184s-1.13-3.465-1.13-5.118-.45-3.285-1-3.625-1-1.661-1-2.937-.675-2.878-1.5-3.563-1.5-2.063-1.5-3.063-.45-2.097-1-2.437-1-1.535-1-2.655-.628-3.231-1.396-4.691-3.081-6.254-5.139-10.654c-3.482-7.441-4.614-10.009-7.282-16.5-.565-1.375-2.862-6.428-5.105-11.23S470 142.666 470 142.208s-.847-2.604-1.882-4.77c-3.42-7.158-5.857-12.891-6.987-16.438l-2.696-8.5c-2.287-7.238-3.782-8.516-9.84-8.414-2.802.047-6.445.542-8.095 1.099m550.475 838.741c-3.038.419-6.496 1.283-7.684 1.918S979.103 947 976.625 947s-4.746.387-5.039.86-2.636 1.149-5.208 1.502-5.172 1.042-5.777 1.532-3.126 1.14-5.601 1.444c-9.913 1.216-16.869 2.463-18.146 3.252-.74.457-3.372 1.169-5.85 1.582l-10.306 1.71c-3.191.528-6.341 1.397-7 1.932s-3.223 1.215-5.698 1.512c-8.711 1.046-17.127 2.672-18.988 3.667-1.034.554-3.254 1.007-4.932 1.007-3.169 0-9.008 1.175-17.58 3.539-2.75.758-6.35 1.599-8 1.869-8.435 1.381-13.565 2.556-15.368 3.521-1.1.589-3.686 1.071-5.745 1.071s-5.127.409-6.816.908c-9.36 2.767-14.443 4.073-17.571 4.516-13.117 1.855-17.214 2.62-18.926 3.536-1.068.572-3.746 1.04-5.949 1.04s-4.285.45-4.625 1-1.956 1-3.591 1-4.589.675-6.563 1.5-5.534 1.5-7.909 1.5-4.597.45-4.937 1-2.181 1-4.091 1-5.089.675-7.063 1.5-4.966 1.5-6.647 1.5-4.439.409-6.128.908c-13.093 3.87-14.645 4.216-27.362 6.095-3.46.511-6.835 1.269-7.5 1.683s-3.459 1.079-6.209 1.477c-9.264 1.339-16.748 2.899-18.564 3.871-.992.531-3.383.966-5.311.966s-3.785.45-4.125 1-2.504 1.003-4.809 1.006-5.48.679-7.055 1.5-4.619 1.494-6.764 1.494-4.681.427-5.636.949-3.863 1.223-6.463 1.558-4.988 1.033-5.309 1.551-2.554.942-4.964.942-4.621.386-4.913.859-3.295 1.109-6.674 1.415-6.632 1.045-7.229 1.642-3.25 1.084-5.898 1.084-5.595.402-6.55.894c-2.121 1.092-11.134 3.067-17.236 3.777-2.475.287-4.928.929-5.45 1.426s-2.674.903-4.782.903-5.448.675-7.422 1.5-4.966 1.5-6.647 1.5c-3.067 0-4.814.414-14.333 3.393-2.824.884-6.51 1.607-8.191 1.607s-3.335.45-3.675 1-2.587 1-4.994 1-5.643.519-7.191 1.152-5.065 1.513-7.815 1.954c-13.252 2.124-16.486 2.768-17.694 3.52-.718.448-3.556 1.144-6.306 1.547-12.777 1.872-18.007 2.934-18.916 3.843-.541.541-2.028.984-3.304.984-3.538 0-9.26 4.09-14.79 10.571-6.789 7.957-16.799 18.681-30.266 32.423-13.271 13.543-14.273 15.637-11.755 24.57 1.701 6.033 2.618 10.792 4.324 22.436.524 3.575 1.88 9.425 3.014 13 2.868 9.044 4.229 15.273 5.243 24 2.098 18.055 3.778 21.443 10.508 21.19 2.021-.076 4.184-.534 4.808-1.018 1.74-1.351 14.078-4.17 18.34-4.19 4.31-.021 19.224-2.525 23.771-3.991 11.968-3.86 12-3.867 31.523-7.12 6.564-1.093 14.493-3.04 27.737-6.811 3.981-1.133 8.454-2.06 9.94-2.06 4.034 0 13.24-1.891 28.323-5.819 7.425-1.933 15.075-3.678 17-3.877 8.694-.9 24.161-4.21 29.5-6.313 3.293-1.297 14.652-3.829 20-4.459l12.5-1.492c4.125-.498 12.363-2.51 18.307-4.472s11.992-3.568 13.44-3.568c5.416 0 26.558-4.267 35.753-7.216 3.3-1.058 9.6-2.308 14-2.778 9.71-1.036 18.525-2.565 22.812-3.956 12.156-3.944 16.511-4.947 30.688-7.063 8.024-1.198 15.856-3.106 25.5-6.214 5.892-1.898 11.049-2.812 27-4.783 7.161-.886 14.248-2.52 18.5-4.268 3.76-1.546 12.628-3.722 15.167-3.722 1.542 0 4.723-.422 7.069-.937 6.246-1.372 21.113-4.892 30.077-7.121 4.298-1.068 9.248-1.942 11-1.943 4.98-.001 18.936-3.106 34.187-7.606 2.75-.811 8.15-1.88 12-2.375 13.158-1.691 20.658-3.032 22.513-4.025 1.021-.546 2.791-.993 3.935-.993s2.861-.401 3.816-.891c3.171-1.628 12.865-4.109 16.055-4.109 6.505 0 27.616-3.877 32.681-6.002 5.57-2.337 12.314-3.998 16.228-3.998 10.166 0 13.604-5.738 9.867-16.467-.773-2.218-1.93-6.733-2.571-10.033-1.607-8.277-3.918-18.408-5.018-22-1.427-4.661-3.134-12.594-3.657-17-.261-2.2-.885-5.8-1.387-8s-.924-5.405-.938-7.123c-.034-4.389-3.559-11.861-6.795-14.405-1.501-1.181-12.598-8.652-24.659-16.603-23.718-15.635-24.541-15.969-35.595-14.443"/><path fill="#12f1fa" stroke="#12f1fa" d="M444.632 106.701c-.385.386-3.048 1.036-5.916 1.444s-8.141 1.481-11.716 2.384-7.85 1.884-9.5 2.182-3.45.867-4 1.267-5.275 1.498-10.5 2.441-10.85 2.159-12.5 2.702-6.375 1.26-10.5 1.593c-13.586 1.096-16.508 3.83-14.072 13.161 1.177 4.512 1.622 6.726 4.037 20.125.644 3.575 1.556 7.4 2.025 8.5 2.786 6.522 6.01 19.047 6.01 23.348 0 1.55.337 3.153.75 3.561s1.264 5.096 1.892 10.417 1.61 11.249 2.181 13.174l2.704 9c.916 3.025 2.035 7.525 2.486 10s1.297 6.3 1.88 8.5 1.07 5.891 1.083 8.203c.022 3.835.605 6.014 3.155 11.797 1.329 3.014 2.944 11.11 3.889 19.5 1.77 15.717 2.964 21.911 4.881 25.324 1.903 3.388 3.236 8.44 5.061 19.176.468 2.75 1.137 5.713 1.487 6.584s1.029 4.696 1.507 8.5 1.339 8.491 1.913 10.416c2.824 9.481 4.291 16.208 5.126 23.5 1.955 17.068 3.21 25.037 4.09 25.95.503.522.915 1.958.915 3.191s.378 2.475.841 2.761c1.163.718 3.918 11.943 4.565 18.598 1.052 10.808 2.636 19.203 5.149 27.29l3.499 11.281c.52 1.689.946 4.506.946 6.261 0 4.059 2.778 21.871 3.925 25.168.478 1.375 1.625 5.2 2.549 8.5s2.064 6.9 2.534 8 1.074 3.35 1.342 5 .962 4.8 1.544 7 1.069 6.116 1.082 8.703c.022 4.276.507 6.18 3.131 12.297 1.906 4.443 3.557 13.861 5.873 33.5.551 4.675 1.407 9.4 1.902 10.5 1.439 3.198 4.118 12.574 4.118 14.415 0 .927.401 2.112.891 2.635s1.128 3.65 1.417 6.95c.914 10.423 2.676 19.8 4.887 26 2.776 7.784 3.79 12.327 4.798 21.5 1.116 10.16 2.866 19.72 4.039 22.065l1.944 3.884c1.58 3.153 5.604 23.018 6.492 32.051.496 5.046 2.125 11.029 3.676 13.5 1.097 1.749 4.66 23.217 6.432 38.763.362 3.17 1.055 6.009 1.541 6.309s.883 1.779.883 3.287.403 3.169.895 3.691c1.161 1.233 3.053 9.237 4.125 17.45 1.86 14.248 3.109 20.532 5.491 27.628 1.369 4.078 2.489 8.503 2.489 9.834s.45 2.698 1 3.038 1 2.391 1 4.559c0 4.618 2.703 21.542 3.904 24.441.456 1.1 1.352 3.125 1.991 4.5 1.492 3.207 5.185 17.349 5.833 22.337.641 4.929-.283 5.74-7.005 6.151-3.04.185-6.483.848-7.651 1.474s-4.685 1.002-7.815.837c-5.609-.295-5.701-.349-6.465-3.799l-5.782-27.5-5.962-27.5a89.59 89.59 0 0 1-1.552-7c-.52-3.046-3.06-15.657-4.028-20l-7.898-37-4.983-23.5a6279.537 6279.537 0 0 1-5.218-24.5l-1.881-9-1.859-8.5-8.007-37.5c-.265-1.375-1.452-7-2.638-12.5l-4.51-21-3.865-18-2.042-10c-.292-1.65-2.359-11.325-4.592-21.5l-5.102-24c-.572-3.025-2.625-12.7-4.562-21.5l-6.797-31.5c-.601-3.299-3.167-15.486-10.527-50l-10.491-49.5-15.995-75c-.784-3.3-1.693-7.575-2.019-9.5-.842-4.974-10.323-49.799-11.422-54-.503-1.925-1.43-6.2-2.059-9.5a456.68 456.68 0 0 0-2.495-12l-3.113-13.9c-1.59-7.128-2.623-9.11-10.578-20.305-4.848-6.823-8.815-12.588-8.815-12.81s-2.813-4.221-6.25-8.886L322 184.459a1956.44 1956.44 0 0 0-13.781-19.31c-3.455-4.757-8.048-11.349-10.206-14.649-4.253-6.502-9.419-10.105-13.207-9.209l-15.245 3.627c-7.116 1.695-13.985 3.082-15.265 3.082s-4.907.659-8.061 1.464c-21.176 5.405-34.35 8.157-40.459 8.453-4.559.22-5.148 7.054-1.301 15.083.659 1.375 1.767 5.2 2.462 8.5l2.663 12.064c.77 3.335 1.4 7.954 1.4 10.263s.396 4.982.879 5.937c3.032 5.987 7.762 27.319 9.144 41.236.464 4.675 1.308 10.525 1.876 13 1.889 8.232 3.748 15.482 4.36 17 .332.825.817 3.075 1.077 5 .49 3.625 3.064 17.244 4.254 22.5.373 1.65 1.047 3.471 1.499 4.047.876 1.12 2.525 9.166 3.883 18.953 1.628 11.728 3.161 21.042 3.952 24 1.45 5.426 4.341 14.962 5.154 17 .811 2.032 1.023 3.212 2.975 16.5 1.228 8.366 2.696 14.639 4.026 17.206.486.939 1.152 3.639 1.48 6s.991 5.194 1.474 6.294 1.099 4.475 1.369 7.5c.588 6.577 3.092 21.916 4.488 27.5l2.639 10c1.704 6.238 2.613 10.212 4.461 19.5 2.816 14.148 3.432 16.679 4.677 19.2.733 1.486 1.333 4.433 1.333 6.55s.406 4.277.903 4.8 1.147 2.975 1.446 5.45c1.723 14.293 4.404 27.573 6.158 30.5.66 1.1 1.742 4.7 2.406 8s1.628 7.376 2.142 9.058 1.186 5.957 1.491 9.5c.574 6.652 2 13.186 3.519 16.127.823 1.593 2.284 8.786 3.823 18.819.38 2.478 1.011 5.024 1.403 5.658s.946 4.683 1.23 8.996c.497 7.532 1.157 10.753 4.123 20.127.746 2.357 1.356 5.079 1.356 6.05s.404 2.192.898 2.715 1.143 2.75 1.444 4.95c2.208 16.161 3.714 23.434 5.799 28 1.071 2.346 2.661 10.354 3.871 19.5 1.763 13.32 4.543 26.541 6.731 32 2.133 5.324 3.257 9.772 3.257 12.887 0 1.784.455 4.094 1.011 5.133s1.253 4.721 1.551 8.184c.549 6.4 1.929 12.682 3.579 16.296 1.024 2.242 2.53 9.768 3.903 19.5 1.448 10.259 3.721 23.136 4.854 27.5 3.247 12.505 4.94 19.777 7.447 32 2.59 12.622 2.928 13.989 3.707 15 .924 1.199 2.922 10.245 3.643 16.5.286 2.475.947 5.027 1.469 5.671s1.351 5.144 1.841 10c1.108 10.978 1.949 15.267 3.494 17.829.664 1.1 1.772 4.7 2.462 8s1.671 7.348 2.18 8.995 1.171 6.373 1.471 10.5.915 8.405 1.366 9.505c2.223 5.42 3.16 8.791 5.004 18l2.986 14c.542 2.2.995 6.566 1.008 9.703s.422 6.737.909 8 1.638 5.672 2.558 9.797c4.991 22.381 4.41 21.91 21.557 17.49 3.575-.922 9.2-2.036 12.5-2.478s8.7-1.568 12-2.503c10.506-2.98 22.801-5.72 33.5-7.466 3.025-.494 8.2-1.616 11.5-2.493 13.619-3.622 26.824-6.478 35-7.571 3.85-.514 9.925-1.628 13.5-2.475 10.139-2.401 15.017-3.443 21.5-4.594 3.3-.586 7.575-1.44 9.5-1.898s6.65-1.356 10.5-1.997c10.046-1.673 14.217-2.576 21-4.55 3.3-.961 8.25-2.084 11-2.497 9.28-1.391 25.934-4.638 35-6.823 7.05-1.699 31.925-7.231 34.157-7.596 1.187-.194 3.662-.843 5.5-1.443 10.525-3.433 13.288-4.106 16.864-4.106 2.172 0 5.869-.447 8.215-.994L711 974.947l13.5-3.07c2.2-.552 6.475-1.458 9.5-2.013s7.075-1.379 9-1.832 7.55-1.567 12.5-2.479c8.601-1.583 10.9-2.144 19.136-4.667 1.999-.612 6.387-1.513 9.75-2.002 13.085-1.902 20.63-3.413 35.114-7.028 3.849-.961 13.633-3.088 22-4.783 5.912-1.198 13.682-3.198 16.297-4.196 1.263-.483 3.431-.877 4.816-.877s3.456-.502 4.603-1.116 5.054-1.546 8.684-2.073c14.846-2.155 17.882-2.697 24.1-4.296 3.575-.92 7.625-1.89 9-2.156s5.2-1.101 8.5-1.855 9.375-1.911 13.5-2.569 11.325-2.067 16-3.13a1508.91 1508.91 0 0 1 12.077-2.704c1.967-.423 4.155-1.126 4.862-1.563s4.272-1.184 7.923-1.661c6.957-.908 20.149-3.084 28.638-4.725 2.75-.532 7.7-1.871 11-2.976s8.25-2.309 11-2.675c15.991-2.126 16.765-2.877 13.685-13.299-1.089-3.686-2.532-9.177-3.207-12.202s-1.616-6.625-2.093-8-1.376-5.875-1.998-10c-1.996-13.242-2.623-16.36-4.776-23.737-1.161-3.981-2.111-8.312-2.111-9.625 0-7.839-5.437-15.63-10.924-15.653-2.46-.011-3.141-.291-2.181-.899 1.56-.988-4.885-2.448-22.395-5.076-3.3-.495-7.8-1.353-10-1.906-4.735-1.191-3.749-1.195-7.732.033-1.797.554-5.743 1.407-8.768 1.895-14.353 2.316-16.886 2.836-18.806 3.864-1.135.607-4.091 1.104-6.569 1.104s-4.785.45-5.125 1-2.196 1-4.125 1-4.489.537-5.691 1.193c-2.105 1.149-5.757 1.911-17.834 3.719-3.108.466-6.17 1.168-6.807 1.561s-3.606 1.123-6.599 1.621l-10.888 1.812c-2.993.498-6.029 1.268-6.745 1.711s-3.329 1.142-5.807 1.555l-10.198 1.695c-3.131.52-6.194 1.255-6.806 1.633-1.091.674-6.669 1.721-18.353 3.443-3.219.475-6.347 1.357-6.95 1.96S820.034 840 818.121 840s-4.861.416-6.55.924c-3.787 1.138-18.37 4.158-28.571 5.915-2.475.427-5.483 1.312-6.684 1.968S772.553 850 770.625 850s-3.785.45-4.125 1-2.279 1.02-4.309 1.044-5.491.692-7.691 1.485-5.436 1.448-7.191 1.456-3.469.465-3.809 1.015-2.646 1-5.125 1-5.489.54-6.691 1.2-4.434 1.544-7.184 1.965l-11.15 1.679c-3.383.503-6.741 1.28-7.463 1.726-1.5.927-7.648 2.174-16.419 3.331-3.318.438-7.001 1.314-8.185 1.947S677.896 870 676.387 870s-4.127.411-5.816.913c-14.604 4.341-28.739 6.319-30.755 4.303-.413-.413-2.126-7.269-3.806-15.234L629.864 831A6617.874 6617.874 0 0 1 625 808l-10.023-47-5.499-26-4.97-23.5-12.983-61.5-3.929-18.252c-.863-3.714-1.819-8.214-2.126-10s-1.016-4.975-1.576-7.086-1.655-7.285-2.432-11.5-2.334-11.712-3.459-16.662l-2.567-12c-.288-1.65-.94-4.575-1.448-6.5s-1.811-8-2.895-13.5l-6.098-29-5.042-23.5a969.85 969.85 0 0 0-2.449-11.5l-2.063-10c-.291-1.65-.938-4.575-1.437-6.5s-2.694-12.275-4.876-23l-5.984-28.5-9.522-44.5c-.649-3.454-7.957-37.913-11.135-52.5l-5.983-28-12.933-61-1.432-7c-2.874-14.216-5.642-24.4-8.153-30a315.42 315.42 0 0 1-5.029-12c-1.286-3.3-3.378-7.98-4.648-10.399s-2.309-4.77-2.309-5.223-1.179-3.423-2.62-6.601l-3.891-8.777-4.438-10.5-4.051-9.5c-3.25-7.366-7-16.427-7-16.915 0-.319-1.383-3.506-3.072-7.082L453.855 106h-4.261c-2.343 0-4.576.315-4.962.701M869.5 847.713c-3.063.737-4.004 2.106-1.061 1.543 1.425-.272 2.835-.891 3.135-1.375s.405-.829.235-.765-1.209.332-2.309.597m-377.75 80.949c.688.278 1.813.278 2.5 0s.125-.504-1.25-.504-1.937.227-1.25.504m498.75 16.422c-11.633 1.866-16.16 2.785-18.815 3.819-1.548.603-4.109 1.097-5.691 1.097s-3.154.45-3.494 1-2.421 1-4.625 1-4.957.508-6.118 1.13-4.619 1.498-7.684 1.947c-9.724 1.427-15.878 2.748-17.941 3.852-1.1.589-3.804 1.071-6.007 1.071s-4.285.45-4.625 1-2.137 1-3.994 1-4.643.498-6.191 1.106-5.29 1.491-8.315 1.96c-12.634 1.961-16.947 2.783-18 3.434-.612.378-3.45 1.059-6.306 1.513s-8.119 1.559-11.694 2.455c-7.823 1.961-13.396 3.107-21.844 4.491-3.489.571-6.847 1.35-7.463 1.731-1.083.669-4.699 1.444-15.193 3.254-2.75.474-6.267 1.356-7.815 1.959S804.244 985 802.256 985s-4.996.421-6.685.936c-4.894 1.493-19.585 4.731-27.265 6.011-2.856.476-5.694 1.175-6.306 1.553-1.044.645-2.876 1.005-17.122 3.362-3.092.512-6.55 1.427-7.684 2.034s-3.073 1.104-4.307 1.104-3.627.411-5.316.913c-5.682 1.689-13.036 3.374-18.071 4.141-12.036 1.832-17.183 2.833-19.815 3.854-1.548.601-3.991 1.092-5.429 1.092s-3.996.411-5.685.913c-8.597 2.557-12.507 3.395-27.765 5.947-3.131.524-6.265 1.305-6.963 1.737-1.249.772-5.274 1.64-15.537 3.35-2.856.476-5.781 1.231-6.5 1.679s-3.668 1.165-6.556 1.594c-10.76 1.599-15.883 2.521-20.75 3.735-12.96 3.234-22.861 5.257-38.694 7.905-3.131.524-6.265 1.305-6.963 1.737s-3.199 1.149-5.556 1.594l-8.574 1.618c-2.357.445-4.893 1.185-5.636 1.643s-4.101 1.199-7.463 1.645c-11.217 1.488-17.339 2.686-19.42 3.799-1.135.607-3.523 1.104-5.307 1.104s-4.627.421-6.316.934c-3.564 1.085-12.108 2.976-18.571 4.11-14.852 2.608-16.238 3.509-31.668 20.587-6.893 7.628-17.324 18.767-23.182 24.752s-9.975 10.521-9.15 10.079c1.092-.587 1.024-.262-.25 1.195-1.883 2.152-2.54 12.737-.856 13.778.492.304 1.121 2.243 1.398 4.309s.989 5.556 1.582 7.756 1.096 6.025 1.117 8.5c.036 4.254 2.23 12.29 3.956 14.492.435.554 1.343 4.833 2.02 9.508s1.635 9.534 2.131 10.797.922 4.188.946 6.5c.07 6.83 1.582 12.774 3.817 15.009l2.091 2.09 6.419-2.203c3.531-1.211 8.604-2.474 11.274-2.806 5.649-.702 32-5.895 37.855-7.46 2.2-.588 9.4-2.136 16-3.441 15.023-2.971 21.52-4.393 28.5-6.238 3.025-.8 7.75-1.904 10.5-2.454l27.5-5.36c2.535-.432 8.042-1.843 13.5-3.457 1.65-.488 5.7-1.337 9-1.886 10.064-1.674 21.783-3.989 26-5.136l7.5-1.951 7.5-1.853c4.808-1.188 12.524-2.657 22-4.188 8.591-1.388 13.918-2.494 18.5-3.842a156.687 156.687 0 0 1 17-4.024c15.421-2.764 24.022-4.497 29-5.845 3.025-.819 7.525-1.881 10-2.361l38.5-7.925c3.811-1.093 7.778-1.917 26-5.4 9.069-1.734 14.223-2.918 20-4.593 4.147-1.204 15.422-3.521 33.5-6.886 5.775-1.074 12.075-2.416 14-2.98 4.229-1.24 11.565-2.879 19-4.243 12.904-2.368 23.345-4.737 30.592-6.939 1.701-.517 6.201-1.382 10-1.923 9.436-1.342 26.518-4.782 34.408-6.929 7.458-2.03 11.772-2.963 19-4.11 7.791-1.235 16.572-3.086 26-5.479 11.064-2.809 13.688-3.366 23.5-4.986 15.362-2.536 24.651-4.55 30.5-6.611 1.375-.484 6.289-1.534 10.921-2.333 12.664-2.183 13.032-2.775 9.784-15.729-1.424-5.679-2.819-11.675-3.1-13.325-.549-3.23-2.814-12.528-4.629-19-.617-2.2-1.549-6.25-2.072-9s-1.39-6.919-1.927-9.264-.977-5.977-.977-8.069c0-11.344-4.243-17.566-18.514-27.151-4.392-2.95-8.136-5.735-8.319-6.19s-.709-.826-1.168-.826-5.635-3.192-11.501-7.094c-13.797-9.176-15.494-9.668-26.998-7.822m-91.998 63.919c.341.552 2.042.754 3.779.448 4.684-.826 4.61-1.451-.173-1.451-2.573 0-3.983.393-3.606 1.003M852 1019.014c0 .593 1.337.779 3.22.447 4.549-.801 4.751-1.461.447-1.461-2.017 0-3.667.456-3.667 1.014m-141.635 30.205c-.634 1.026 2.596.877 5.135-.237 1.616-.71 1.362-.846-1.326-.711-1.829.091-3.543.518-3.809.948"/><path fill="#04bcbc" stroke="#04bcbc" d="M436.5 109.613l-60 12.945c-4.95.926-9.348 1.999-9.773 2.386s.115 4.72 1.202 9.629l4.654 20.927 5.83 27.5 10.244 48 2.844 13.5c1.303 6.577 2.146 10.498 4.457 20.75l13.588 64.172 4.982 22.5c.335.868 1.701 7.203 3.036 14.078l5.996 29 8.893 43a611.185 611.185 0 0 0 3.707 17c1.103 4.675 2.143 9.4 2.31 10.5.44 2.896 6.152 30.059 7.962 37.862.847 3.653 1.782 8.104 2.077 9.89s.94 4.373 1.434 5.748 1.128 4.3 1.412 6.5 1.252 7.15 2.153 11l2.576 11c1.134 4.83 1.653 7.315 3.031 14.5l5.767 28.5 5.072 23.5 4.188 19.5 1.855 8.5c.438 1.925 2.461 11.6 4.496 21.5l4.114 18.673c.229.37.84 2.845 1.359 5.5L491.001 712l10.014 48 8.06 38 2.971 14c.46 2.475 2.225 11.025 3.923 19l4.039 19 8.866 40.5c3.118 13.95 6.002 28.957 5.636 29.323-.182.183-6.334 1.674-13.671 3.314A4665.726 4665.726 0 0 0 497 928.538c-5.775 1.331-12.075 2.623-14 2.873s-7.658 1.383-12.739 2.521c-8.767 1.962-14.261 2.591-14.261 1.633 0-.415-.731-3.838-5.136-24.065l-4.838-23-7.5-35.5-7.629-36-4.53-21c-.838-3.575-2.813-12.8-4.388-20.5l-5.467-26-5.003-23.5a5497.262 5497.262 0 0 0-5.52-26l-5.523-26-3.968-18.5-2.424-11.5c-.474-2.475-2.752-13.275-5.064-24l-6.529-30.5a60438.156 60438.156 0 0 0-22.536-105.75 6798.51 6798.51 0 0 1-5.98-28.25l-5.372-25.5-4.946-23.5-6.646-31-2.929-13.5-6.602-31a8758.522 8758.522 0 0 1-7.506-35.5l-4.978-23.5-6.078-28.5-6.896-32.5-7.382-35c-6.969-33.284-7.032-33.515-9.226-33.4-3.099.163-9.162 1.309-17.797 3.363-4.459 1.06-13.057 2.899-19.107 4.085-17.951 3.519-19.861 3.929-23 4.935-1.65.529-7.034 1.656-11.965 2.504s-9.324 1.902-9.763 2.341.123 5.046 1.25 10.236L210.037 194l5.051 23c1.146 4.675 3.621 16.266 5.498 25.757l9.022 43L236.052 316c.875 4.718 7.806 37.485 10.47 49.5l5.418 25.5 3.52 16.5 4.487 21 12.639 59.5a3548.897 3548.897 0 0 1 4.445 21l5.984 28 6.522 31 4.396 20.5 3.55 16 8.14 38.5 7.046 33 3.302 16c1.252 6.836 8.57 41.384 10.803 51l3.116 14 3.18 15a2649.34 2649.34 0 0 1 2.866 13.5l11.545 55 4.651 21.5 7.773 37.211 6.022 28L370.512 949c.875 4.675 2.453 11.875 3.508 16s3.514 15.375 5.464 25l6.585 32.5c1.671 8.25 3.352 15.312 3.735 15.692.834.83 3.972.208 71.696-14.204l73-15.416 34.5-7.511c2.475-.593 9.9-2.173 16.5-3.511l33.5-7.039 33-7.029a4120.87 4120.87 0 0 0 21-4.488 1491.655 1491.655 0 0 1 19.094-3.993 991.43 991.43 0 0 0 19-4.049L739 964.977l42.5-8.981 71-15.147 30-6.362 64-13.578 53-11.294 26.733-5.6c3.152-.632 5.962-1.521 6.242-1.975.436-.705-3.147-18.858-8.986-45.54l-7.151-34.189c-.793-4.363-1.157-4.392-15.338-1.208l-65 13.92-30.5 6.438-21.5 4.501c-2.475.492-5.799 1.389-7.386 1.993s-4.513 1.321-6.5 1.591c-7.657 1.042-11.056 1.676-24.614 4.586-7.7 1.654-15.125 3.413-16.5 3.909s-4.3 1.112-6.5 1.368-7.375 1.212-11.5 2.125l-16.5 3.526a2219.64 2219.64 0 0 0-18 3.831l-31 6.544-26 5.557c-2.2.537-12.775 2.806-23.5 5.041A6565.151 6565.151 0 0 0 663 893c-37.001 7.959-42.398 8.997-43.05 8.277-.388-.427-1.909-6.402-3.38-13.277a6881.746 6881.746 0 0 0-5.187-24l-3.894-18.5-3.988-19-11.578-54.5c-.472-2.475-1.563-7.65-2.425-11.5l-12.395-58-7.97-37.5a26043.368 26043.368 0 0 1-14.212-67l-6.933-32.5-11.498-54-20.63-97-4.502-21L498.99 335l-9.998-47-18.559-87.5-16.032-75.5c-4.265-20.482-2.383-18.865-17.901-15.387M456.403 114l3.544 16.5 21.092 99 4.835 23 4.125 19.5 8.04 37.5 4.375 20.5a9077.028 9077.028 0 0 0 7.665 36.5l4.966 23.5 5.479 25.5 5.981 28 6.49 30.5 13.006 61.5 6.021 28.5 5.961 28a10056.41 10056.41 0 0 0 5.968 28 9161.085 9161.085 0 0 1 5.543 26l3.996 18.5c.863 3.85 1.986 9.25 2.496 12s2.79 13.55 5.065 24l10.44 49 5.538 26 6.5 30.5 4.985 23.5 12.249 58.216c.89 4.519 2.196 8.438 2.902 8.709s8.608-1.051 17.559-2.938l51.767-11.071c3.58-.833 10.784-2.377 16.009-3.431a3193.882 3193.882 0 0 0 24-4.987l19-4.014 14-2.993a7834.618 7834.618 0 0 1 44.5-9.44l57.5-12.255a2326.966 2326.966 0 0 1 25-5.332l18-3.824c2.475-.566 5.85-1.273 7.5-1.57s10.425-2.152 19.5-4.121l56.843-12.088c14.417-3.026 14.618-3.531 2.157-5.42a427.49 427.49 0 0 1-12-2.049c-8.237-1.54-15.743-1.542-24-.006-3.575.665-8.75 1.538-11.5 1.941s-5.588 1.099-6.306 1.547c-1.336.832-9.146 2.331-17.194 3.299-2.475.298-5.021.964-5.657 1.48-1.082.877-4.541 1.668-16.843 3.852-8.017 1.423-15.762 3.076-19.071 4.071-1.689.508-4.45.924-6.136.924s-4.353.672-5.929 1.494-4.525 1.496-6.555 1.5-3.969.456-4.309 1.006-2.421 1-4.625 1-4.853.453-5.887 1.007c-1.864.997-9.369 2.431-19.988 3.82-3.025.395-6.173 1.141-6.996 1.657-1.422.892-5.293 1.674-16.504 3.335-2.75.408-5.491 1.048-6.092 1.422s-3.751 1.172-7 1.771c-10 1.843-14.652 2.826-21.408 4.525-3.575.899-8.525 2.016-11 2.482-6.374 1.199-13.979 2.949-17.571 4.045-1.689.515-4.862.936-7.05.936s-4.46.481-5.047 1.068-3.716 1.509-6.95 2.047c-11.549 1.92-15.971 2.796-22.382 4.434-3.575.914-9.2 1.99-12.5 2.391s-7.267 1.254-8.815 1.895-4.046 1.165-5.55 1.165-3.162.404-3.685.898-2.75 1.136-4.95 1.428c-3.472.462-7.763 1.386-19.698 4.242-3.47.83-8.744-1.468-9.336-4.068-.25-1.1-2.01-9.425-3.91-18.5l-14.518-68.5-10.076-47.5-4.976-23-4.089-19-5.835-28-4.204-19.5-1.857-9c-.986-5.055-5.426-25.791-7.494-35-1.609-7.164-2.583-11.824-4.494-21.5l-3.578-17-3.538-17c-.575-3.025-1.473-7.075-1.994-9s-1.878-8-3.013-13.5a4814.999 4814.999 0 0 0-10.9-51.5l-5.019-24c-.435-2.475-1.524-7.65-2.42-11.5l-5.21-24-5.966-28a1571.95 1571.95 0 0 1-4.286-20.504l-5.569-26L520.011 316c-1.013-5.225-3.706-18.05-5.985-28.5l-5.032-23.5c-6.973-35.308-11.514-54.897-14.024-60.5-.986-2.2-3.137-7.375-4.782-11.5s-4.834-11.464-7.089-16.309-4.099-9.239-4.099-9.764-.439-1.736-.975-2.691c-2.286-4.074-6.025-12.714-6.025-13.923 0-.722-.414-1.313-.921-1.313s-1.238-1.448-1.627-3.217-1.059-3.907-1.49-4.75c-.867-1.695-4.875-10.507-7.363-16.184-.879-2.008-1.599-4.094-1.599-4.635s-.697-2.499-1.549-4.349c-1.162-2.523-1.424-2.739-1.048-.865m-163.521 31.666c-.066.459-.046 1.231.044 1.717.7 3.798 6.328 30.992 7.992 38.617l7.599 36 1.806 8.5 6.617 31 10.097 47c.503 2.2 2.744 12.775 4.981 23.5l7.574 36 6.01 28.5 3.414 16 3.985 18.5 4.949 23 2.43 11.5c.304 1.65 1.886 9.3 3.516 17l15.666 73.5a3877.137 3877.137 0 0 1 6.323 29.5l10.985 52 3.448 16.5c.257 1.375 1.456 7 2.665 12.5l4.193 19.5a2531.058 2531.058 0 0 0 2.973 14 483.698 483.698 0 0 1 1.473 7c.272 1.375.954 4.525 1.515 7l4.524 21 5.959 28 3.871 18.5 9.651 45.5 3.908 18.5 9.372 44 7.179 33.754c1.936 9.371 1.604 9.135 10.063 7.165 3.76-.876 9.086-1.986 11.836-2.468s9.725-1.957 15.5-3.279a939.14 939.14 0 0 1 22.215-4.726c12.499-2.477 13.212-2.971 11.732-8.132-.521-1.815-.947-4.541-.947-6.057 0-3.295-2.025-3.563-9.591-1.268-2.7.819-7.481 1.494-10.624 1.5-6.565.013-7.179-.616-8.299-8.489-.391-2.75-1.531-8.15-2.534-12s-2.794-12.175-3.981-18.5l-2.999-15-3.487-15.5-3.977-18a333.97 333.97 0 0 1-2.535-13c-.662-3.85-1.573-8.125-2.024-9.5s-1.565-6.325-2.474-11l-2.993-14.5a482.24 482.24 0 0 1-2.483-12c-.629-3.3-1.572-7.575-2.094-9.5-.996-3.668-4.197-18.588-6.545-30.5l-7.398-35-4.929-23.5c-.428-2.475-1.715-8.55-2.861-13.5-3.982-17.215-7.172-32.863-7.172-35.188 0-1.286-.435-3.121-.967-4.076s-1.881-6.461-2.997-12.236c-2.025-10.476-4.26-21.025-10.064-47.5l-3.98-19c-1.278-7.019-2.527-12.887-4.469-21l-2.177-9.5-2.555-12.5-2.801-14c-.411-2.2-1.518-7.15-2.459-11s-2.102-9.025-2.58-11.5l-2.417-12a785.578 785.578 0 0 1-2.475-12.5c-.509-2.75-1.642-7.925-2.518-11.5s-2.009-8.75-2.518-11.5-1.652-8.375-2.538-12.5-1.835-9.075-2.11-11-.893-4.4-1.374-5.5c-.766-1.749-4.604-19.218-7.142-32.5l-1.816-9.5c-.526-2.75-1.662-7.925-2.525-11.5s-2.012-8.75-2.552-11.5l-2.483-12-2.481-12c-.539-2.75-1.669-7.925-2.511-11.5s-1.959-8.975-2.479-12c-2.382-13.836-4.782-22.056-7.59-25.999-1.607-2.257-3.372-4.868-3.922-5.803s-1.225-1.923-1.5-2.198-2.057-2.75-3.96-5.5-3.815-5.15-4.25-5.333-.79-.745-.79-1.249c0-.893-14.791-21.946-25.927-36.903-3.065-4.116-6.374-8.763-7.354-10.325s-2.702-3.819-3.828-5.015-4.263-5.475-6.969-9.509-4.975-6.958-5.04-6.5M991 946.13c-3.025.522-7.75 1.202-10.5 1.512s-5.498.969-6.107 1.464c-1.236 1.006-8.316 2.675-15.893 3.747-2.75.389-5.607 1.085-6.35 1.548s-3.892 1.221-7 1.687c-10.541 1.578-15.643 2.619-18.465 3.767-1.548.63-4.334 1.145-6.191 1.145s-3.654.45-3.994 1-2.196 1-4.125 1-4.353.453-5.387 1.007c-1.743.932-5.719 1.721-19.988 3.966-6.179.972-13.971 2.688-18.571 4.091-1.689.515-4.081.936-5.316.936s-3.057.435-4.049.966c-1.667.892-5.341 1.691-18.564 4.035-2.75.488-7.925 1.626-11.5 2.529s-8.527 1.958-11.004 2.345-5.037 1.032-5.686 1.434-4.248 1.176-7.996 1.721c-9.372 1.364-15.674 2.585-23.314 4.514-3.575.903-8.75 1.951-11.5 2.329s-5.588 1.053-6.306 1.501-3.869 1.242-7 1.766c-12.841 2.148-15.963 2.777-21.694 4.373-3.3.919-8.027 1.985-10.504 2.368s-5.11 1.072-5.85 1.529c-1.274.787-6.675 1.748-19.146 3.405-3.025.402-6.064 1.085-6.753 1.519s-3.614 1.233-6.5 1.778c-12.088 2.282-14.462 2.767-18.747 3.824-10.019 2.471-13.176 3.064-16.314 3.064-1.807 0-3.713.415-4.236.923-.872.847-3.975 1.619-16.45 4.092-11.389 2.257-15.722 3.205-18.571 4.061-1.689.508-4.756.924-6.816.924s-4.645.482-5.745 1.071c-2.042 1.093-8.425 2.477-17.368 3.768-2.75.396-5.52 1.045-6.156 1.442s-4.011 1.192-7.5 1.767c-13.209 2.179-16.512 2.842-22.344 4.484-3.3.929-7.8 1.915-10 2.191s-4.554.949-5.231 1.496c-1.121.905-5.741 1.753-18.269 3.353-2.475.316-5.4.985-6.5 1.487-1.843.842-6.949 1.885-18.504 3.78-2.478.407-5.023 1.06-5.657 1.451s-3.781 1.137-6.995 1.655c-17.471 2.82-18.787 3.712-37.844 25.636-3.3 3.796-10.626 11.58-16.28 17.298s-10.043 10.632-9.754 10.921c.467.466 12.836-1.997 39.534-7.873l56.5-12.045 23-4.921 57-12.03 30-6.41 26-5.527 30.5-6.501c3.025-.722 7.3-1.61 9.5-1.971s7.6-1.508 12-2.546 9.35-2.089 11-2.336 8.4-1.636 15-3.088l47-10.081 19.128-4.081c5.713-1.326 33.208-7.149 53.872-11.41l37.5-8.122c5.225-1.155 11.525-2.441 14-2.858s9-1.759 14.5-2.983l31.5-6.833a62018.14 62018.14 0 0 0 24-5.073l12-2.452c1.375-.243 4.3-.917 6.5-1.498s9.625-2.188 16.5-3.572l50.73-10.986c.204-.203-2.015-1.831-4.93-3.617s-5.525-3.547-5.8-3.912-3.65-2.624-7.5-5.021-7.225-4.642-7.5-4.991-4.325-3.047-9-5.994c-9.291-5.858-12.495-6.577-22-4.938m50 33.941c-4.125.955-18.525 4.04-32 6.856l-38 8.057-53.721 11.444c-.672.1-1.534.494-1.917.876s-1.772.696-3.088.696c-1.553 0-2.142.405-1.679 1.155.396.64.279.885-.263.55-1.503-.929-27.795 3.864-53.832 9.813-1.1.251-4.475.948-7.5 1.549l-9.5 2.003-19 4.014-48.5 10.236a2061.33 2061.33 0 0 1-24.5 5.185l-28 5.987-25.5 5.485-18.5 4.029c-4.4 1.031-11.6 2.559-16 3.396-10.131 1.929-54.243 11.273-100 21.184l-33.234 6.989c-3.978.747-11.178 2.262-16 3.368A942.765 942.765 0 0 1 492 1096.89l-38.5 8.095-37.854 8.024c-4.87 1.026-9.074 2.086-9.344 2.355s.647 5.585 2.035 11.813L420.362 1183l3.138 15.5 4-.177c2.2-.097 19.975-3.619 39.5-7.825l44.5-9.477 59-12.495 33-6.993 32.5-6.923a2383.2 2383.2 0 0 1 21.5-4.61l14-3.027c2.2-.521 13.9-3.021 26-5.557l33-6.94 30.5-6.418 33.5-7.126 23.5-5.026 13.5-2.933c2.2-.521 13.9-3.016 26-5.546l33-6.93 56-11.944c1.1-.268 10.55-2.28 21-4.471l45-9.571 49.79-10.492c2.084-.421 4.064-1.04 4.4-1.376s-2.399-14.681-6.078-31.877a44112.109 44112.109 0 0 1-8.813-41.266c-1.168-5.5-2.388-10.262-2.711-10.583s-3.963.198-8.088 1.154"/><path fill="#6f74ac" stroke="#6f74ac" d="M426 113.077a17975.67 17975.67 0 0 1-40 8.529c-9.625 2.036-17.815 3.97-18.2 4.298s-.24 2.621.323 5.096l7.847 36.5 11.525 54 4.965 23.5 6.539 31 5.981 28 5.478 25.5 5.089 24.5c.779 4.125 2.124 10.425 2.988 14s3.553 15.95 5.973 27.5a7376.857 7376.857 0 0 0 10.63 50 2681.31 2681.31 0 0 1 3.799 18l14.092 66c.526 2.2 3.019 13.9 5.54 26l9.579 45.5a492335.657 492335.657 0 0 1 15.298 72l7.602 36 6.559 30.5 4.401 20.5 14 66 3.527 16.5 8.102 38 3.825 18 2.914 14c1.93 8.959 2.519 8.509-16.376 12.494-8.525 1.798-16.175 3.609-17 4.025s-3.525 1.026-6 1.356c-5.555.742-17.833 3.19-28.677 5.719-4.498 1.048-8.606 1.906-9.129 1.906-1.417 0-2.813-4.312-5.181-16l-7.01-33.5-8.967-42.5-5.052-23.5c-.531-2.2-3.197-14.575-5.924-27.5a24818.296 24818.296 0 0 0-11.529-54.225l-10.479-49.5L397.033 663a1990.831 1990.831 0 0 1-4.503-21 8272.06 8272.06 0 0 0-5.9-28l-7.527-35.5-8.62-40.5-5.932-28-8.501-40-10.55-49.5-14.004-66a7783.56 7783.56 0 0 1-7.05-33.5l-6.943-32.5-10.561-49.5-10.041-47.5-5.913-27.94c-2.182-10.417-4.367-19.339-4.856-19.828-.516-.516-3.76-.203-7.759.75-7.982 1.9-11.561 2.671-27.873 6.001l-21 4.555-11.5 2.575-13.996 2.774c.027.791 5.78 28.469 8.962 43.113l8.006 37.5 8.039 38a8165.31 8165.31 0 0 1 7.584 36l12.533 58.5 5.048 23.5 8.31 39.5 6.971 33 5.963 28 3.655 17 3.53 16.5 3.949 19 2.45 11.5c1.195 4.934 4.706 21.442 9.464 44.5l4.549 21.5c.515 2.2 2.324 10.525 4.02 18.5l5.975 28 18.981 89.5 6.534 30.5 4.928 23.5c.729 3.85 1.857 9.25 2.507 12s2.694 12.2 4.543 21l7 33a18832.08 18832.08 0 0 1 14.406 68l4.57 21.5 3.432 16 10.752 48.266c.289.468 1.945.574 3.68.234 4.257-.832 24.499-5.181 33.155-7.124l21-4.449 48.5-10.3 24.5-5.19 11.5-2.427c1.925-.446 10.025-2.172 18-3.837a3022.842 3022.842 0 0 0 26-5.555l59-12.559 54.457-11.62 26-5.592 65.043-13.718 38.5-8.168 28.5-6.076 23-4.88 51.5-11.012 23.5-4.989 53-11.271c6.05-1.36 15.149-3.26 20.221-4.221 14.082-2.67 13.463 2.25 4.78-38.012l-5.926-28.153c-1.835-8.885-3.673-16.697-4.083-17.36-.87-1.408-1.145-1.368-23.992 3.54l-28 5.978-30 6.342-58 12.71c-1.1.275-5.776 1.176-10.39 2.001s-14.29 2.808-21.5 4.405a1467.717 1467.717 0 0 1-26.11 5.484c-7.15 1.419-14.575 3.014-16.5 3.544s-8.9 2.071-15.5 3.425l-71.528 15.106c-3.591.826-10.791 2.359-16 3.405l-28.472 6.035-28 6a3961.28 3961.28 0 0 0-14.802 3.101c-7.057 1.501-7.07 1.488-9.173-8.563L604.986 839a2770.33 2770.33 0 0 1-3.966-18.5l-5.88-28-6.631-31-4.181-19.5-2.314-11-3.32-15.5-5.142-24-5.534-26-10.482-49.5-6.029-28.5a9313.629 9313.629 0 0 0-13.489-63.5 6991.916 6991.916 0 0 1-7.01-33l-21.136-99.5-4.841-23-11.899-56-6.561-31-7.013-33a3051.18 3051.18 0 0 1-4.997-23.5l-3.563-16.5c-.53-2.2-2.805-12.775-5.057-23.5l-16.702-76.085c-.407-.365-10.864 1.508-23.239 4.162m608 869.473l-29.5 6.316a12125.41 12125.41 0 0 0-28.5 6.106l-45 9.512c-6.875 1.436-14.3 3.115-16.5 3.732s-4.579 1.233-5.286 1.369-3.407.72-6 1.296-10.954 2.222-18.58 3.658-15.951 3.217-18.5 3.958-7.109 1.808-10.134 2.369c-5.109.948-29.492 6.026-70.501 14.682L764 1039.962c-5.257.965-39.649 8.58-45.5 10.074-6.218 1.588-7.629 1.887-11.96 2.532-2.222.331-11.465 2.168-20.54 4.083a6318.598 6318.598 0 0 1-24 5.02l-11 2.336-22.5 4.812a8337.48 8337.48 0 0 0-29 6.177l-32.5 6.977-19 4.033-33.5 7.111-37 7.834-35 7.416-35.087 7.887c-.462.462.005 2.909 4.535 23.746l4.082 19 3.003 14 3.664 17.25c1.338 6.53 1.9 7.75 3.572 7.75 1.637 0 58.453-11.784 72.231-14.982 2.2-.51 10.3-2.261 18-3.891l28.5-6.058 57-12.052 54-11.466 28.5-6.043 21-4.51c2.2-.536 13-2.812 24-5.059l28.063-5.984c4.435-1.044 16.135-3.546 26-5.558l21.437-4.434 50.5-10.838 31-6.642 19-3.907c3.85-.727 12.175-2.468 18.5-3.868l40.5-8.734c2.2-.402 10.525-2.145 18.5-3.873l67-14.278c7.975-1.659 14.847-3.342 15.272-3.741s-3.142-19.031-7.924-41.404c-8.123-38-8.832-40.669-10.772-40.537-1.142.078-6.801 1.162-12.576 2.409"/></svg>