<?xml version="1.0" encoding="utf-8"?>
<svg width="1843.0001px" height="135px" viewBox="0 0 1843.0001 135" version="1.1" xmlns:xlink="http://www.w3.org/1999/xlink" xmlns="http://www.w3.org/2000/svg">
  <defs>
    <linearGradient gradientUnits="objectBoundingBox" x1="0" y1="0.5" x2="1" y2="0.5" id="gradient_1">
      <stop offset="0%" stop-color="#7576AC" />
      <stop offset="100%" stop-color="#07BBBC" />
    </linearGradient>
    <path d="M0 0L635 0L635 123L0 123L0 0Z" id="path_1" />
    <path d="M0 0L821 0L821 123L0 123L0 0Z" id="path_2" />
    <path d="M0 0L373 0L373 123L0 123L0 0Z" id="path_3" />
    <clipPath id="clip_1">
      <use xlink:href="#path_1" clip-rule="evenodd" fill-rule="evenodd" />
    </clipPath>
    <clipPath id="clip_2">
      <use xlink:href="#path_2" clip-rule="evenodd" fill-rule="evenodd" />
    </clipPath>
    <clipPath id="clip_3">
      <use xlink:href="#path_3" clip-rule="evenodd" fill-rule="evenodd" />
    </clipPath>
  </defs>
  <g id="Welcome-to" clip-path="url(#clip_1)" transform="translate(0 4)">
    <g fill="url(#gradient_1)" stroke="none" id="Welcome-to">
      <path d="M114.1 26.8L91.2 96.8L73.8 96.8L58.4 49.4L42.5 96.8L25.2 96.8L2.2 26.8L19 26.8L34.8 76L51.3 26.8L66.3 26.8L82.3 76.4L98.6 26.8L114.1 26.8ZM170.7 70.1Q170.7 70.4 170.4 74.3L129.7 74.3Q130.8 79.3 134.9 82.2Q139 85.1 145.1 85.1Q149.3 85.1 152.55 83.85Q155.8 82.6 158.6 79.9L166.9 88.9Q159.3 97.6 144.7 97.6Q135.6 97.6 128.6 94.05Q121.6 90.5 117.8 84.2Q114 77.9 114 69.9Q114 62 117.75 55.65Q121.5 49.3 128.05 45.75Q134.6 42.2 142.7 42.2Q150.6 42.2 157 45.6Q163.4 49 167.05 55.35Q170.7 61.7 170.7 70.1ZM142.8 54Q137.5 54 133.9 57Q130.3 60 129.5 65.2L156 65.2Q155.2 60.1 151.6 57.05Q148 54 142.8 54ZM181.1 22.6L196.7 22.6L196.7 96.8L181.1 96.8L181.1 22.6ZM237.2 97.6Q228.6 97.6 221.75 94.05Q214.9 90.5 211.05 84.2Q207.2 77.9 207.2 69.9Q207.2 61.9 211.05 55.6Q214.9 49.3 221.75 45.75Q228.6 42.2 237.2 42.2Q245.7 42.2 252.05 45.75Q258.4 49.3 261.3 55.9L249.2 62.4Q245 55 237.1 55Q231 55 227 59Q223 63 223 69.9Q223 76.8 227 80.8Q231 84.8 237.1 84.8Q245.1 84.8 249.2 77.4L261.3 84Q258.4 90.4 252.05 94Q245.7 97.6 237.2 97.6ZM295.2 97.6Q286.7 97.6 279.95 94.05Q273.2 90.5 269.4 84.2Q265.6 77.9 265.6 69.9Q265.6 61.9 269.4 55.6Q273.2 49.3 279.95 45.75Q286.7 42.2 295.2 42.2Q303.7 42.2 310.4 45.75Q317.1 49.3 320.9 55.6Q324.7 61.9 324.7 69.9Q324.7 77.9 320.9 84.2Q317.1 90.5 310.4 94.05Q303.7 97.6 295.2 97.6ZM295.2 84.8Q301.2 84.8 305.05 80.75Q308.9 76.7 308.9 69.9Q308.9 63.1 305.05 59.05Q301.2 55 295.2 55Q289.2 55 285.3 59.05Q281.4 63.1 281.4 69.9Q281.4 76.7 285.3 80.75Q289.2 84.8 295.2 84.8ZM404 42.2Q414.1 42.2 420.05 48.15Q426 54.1 426 66L426 96.8L410.4 96.8L410.4 68.4Q410.4 62 407.75 58.85Q405.1 55.7 400.2 55.7Q394.7 55.7 391.5 59.25Q388.3 62.8 388.3 69.8L388.3 96.8L372.7 96.8L372.7 68.4Q372.7 55.7 362.5 55.7Q357.1 55.7 353.9 59.25Q350.7 62.8 350.7 69.8L350.7 96.8L335.1 96.8L335.1 43L350 43L350 49.2Q353 45.8 357.35 44Q361.7 42.2 366.9 42.2Q372.6 42.2 377.2 44.45Q381.8 46.7 384.6 51Q387.9 46.8 392.95 44.5Q398 42.2 404 42.2ZM493.3 70.1Q493.3 70.4 493 74.3L452.3 74.3Q453.4 79.3 457.5 82.2Q461.6 85.1 467.7 85.1Q471.9 85.1 475.15 83.85Q478.4 82.6 481.2 79.9L489.5 88.9Q481.9 97.6 467.3 97.6Q458.2 97.6 451.2 94.05Q444.2 90.5 440.4 84.2Q436.6 77.9 436.6 69.9Q436.6 62 440.35 55.65Q444.1 49.3 450.65 45.75Q457.2 42.2 465.3 42.2Q473.2 42.2 479.6 45.6Q486 49 489.65 55.35Q493.3 61.7 493.3 70.1ZM465.4 54Q460.1 54 456.5 57Q452.9 60 452.1 65.2L478.6 65.2Q477.8 60.1 474.2 57.05Q470.6 54 465.4 54ZM566.7 94.2Q564.4 95.9 561.05 96.75Q557.7 97.6 554 97.6Q544.4 97.6 539.15 92.7Q533.9 87.8 533.9 78.3L533.9 56.2L525.6 56.2L525.6 44.2L533.9 44.2L533.9 31.1L549.5 31.1L549.5 44.2L562.9 44.2L562.9 56.2L549.5 56.2L549.5 78.1Q549.5 81.5 551.25 83.35Q553 85.2 556.2 85.2Q559.9 85.2 562.5 83.2L566.7 94.2ZM599.4 97.6Q590.9 97.6 584.15 94.05Q577.4 90.5 573.6 84.2Q569.8 77.9 569.8 69.9Q569.8 61.9 573.6 55.6Q577.4 49.3 584.15 45.75Q590.9 42.2 599.4 42.2Q607.9 42.2 614.6 45.75Q621.3 49.3 625.1 55.6Q628.9 61.9 628.9 69.9Q628.9 77.9 625.1 84.2Q621.3 90.5 614.6 94.05Q607.9 97.6 599.4 97.6ZM599.4 84.8Q605.4 84.8 609.25 80.75Q613.1 76.7 613.1 69.9Q613.1 63.1 609.25 59.05Q605.4 55 599.4 55Q593.4 55 589.5 59.05Q585.6 63.1 585.6 69.9Q585.6 76.7 589.5 80.75Q593.4 84.8 599.4 84.8Z" />
    </g>
  </g>
  <g id="LIMATV" clip-path="url(#clip_2)" transform="translate(676.00006 4)">
    <g stroke="#7576AC" stroke-width="1" id="LIGMATV" fill="#7576AC">
      <path d="M27.84 92.48L72.48 92.48L72.48 101.92L0 101.92L0 2.71999L9.44 2.71999L9.44 92.48L18.4 92.48L18.4 2.71999L27.84 2.71999L27.84 92.48ZM0 120L0 110.56L72.48 110.56L72.48 120L0 120ZM95.84 120L86.4 120L86.4 2.71999L95.84 2.71999L95.84 120ZM113.92 120L104.48 120L104.48 2.71999L113.92 2.71999L113.92 120ZM235.36 57.12L235.36 65.12L235.36 67.04L235.36 97.44L234.88 97.44L235.04 97.6L235.36 97.44Q231.2 102.72 225.92 106.88L225.92 97.44L225.92 94.08L225.92 67.04L192.16 67.04L192.16 57.12L235.36 57.12ZM218.56 89.44L218.4 89.44L218.4 100.8L218.4 108.32L218.4 112Q211.68 115.84 204 118Q196.32 120.16 187.84 120.16C179.52 120.16 171.707 118.613 164.4 115.52Q153.44 110.88 145.28 102.88Q137.12 94.88 132.4 84.24Q127.68 73.6 127.68 61.44Q127.68 49.28 132.4 38.56Q137.12 27.84 145.28 19.92Q153.44 12 164.4 7.35999Q175.36 2.71999 187.84 2.71999Q200.16 2.71999 210.96 7.19624Q221.76 11.6725 229.92 19.52L223.36 26.24Q216.48 19.68 207.44 15.92Q198.4 12.16 187.84 12.16Q177.28 12.16 168.08 16.0737Q158.88 19.9875 152 26.6962Q145.12 33.405 141.12 42.3512Q137.12 51.2975 137.12 61.52Q137.12 71.7425 141.12 80.6888Q145.12 89.635 152 96.3438Q158.88 103.052 168.08 106.886Q177.28 110.72 187.84 110.72Q199.2 110.72 209.28 106.08L209.28 96.64Q204.64 99.36 199.2 100.88Q193.76 102.4 187.84 102.4Q179.2 102.4 171.6 99.2Q164 96 158.24 90.4Q152.48 84.8 149.2 77.36Q145.92 69.92 145.92 61.44Q145.92 52.96 149.2 45.52Q152.48 38.08 158.24 32.48Q164 26.88 171.6 23.68Q179.2 20.48 187.84 20.48Q196.48 20.48 204.08 23.6Q211.68 26.72 217.44 32.32L210.88 39.04Q206.4 34.88 200.48 32.4Q194.56 29.92 187.84 29.92Q181.12 29.92 175.2 32.4Q169.28 34.88 164.88 39.12Q160.48 43.36 157.92 49.12Q155.36 54.88 155.36 61.44Q155.36 68 157.92 73.68Q160.48 79.36 164.88 83.68Q169.28 88 175.2 90.48Q181.12 92.96 187.84 92.96Q194.08 92.96 199.52 90.88Q204.96 88.8 209.28 85.12L209.28 84.48L192.16 84.48L192.16 74.56L209.28 74.56L218.4 74.56L218.4 84.48L218.4 87.84L218.4 89.28L218.56 89.44ZM262.88 62.24L262.88 48.16L314.24 105.28L307.84 112.32L272.32 72.64L272.32 120L262.88 120L262.88 95.2L262.88 62.24ZM307.84 71.84L370.72 2.71999L370.72 120L361.28 120L361.28 53.28L352.96 62.56L352.96 120L343.52 120L343.52 72.8L319.84 98.88L254.4 26.88L254.4 37.6L254.4 38.72L254.4 52.8L254.4 95.2L254.4 120L244.96 120L244.96 2.71999L307.84 71.84ZM361.28 39.36L361.28 26.88L314.08 78.72L319.84 84.96L361.28 39.36ZM418.56 120L407.52 120L420.48 97.28L502.08 97.28L515.2 120L503.68 120L496.48 106.72L485.12 106.72L492.48 120L481.6 120L474.4 106.72L426.08 106.56L418.56 120ZM396.32 120L386.24 120L396.64 99.68L450.08 2.71999L497.44 88.96L413.44 88.96L404.96 104.32L396.32 120ZM440.8 79.52L459.2 79.36L450.08 63.2L440.8 79.52ZM450.08 22.56L418.72 79.52L429.92 79.52L450.08 44L470.08 79.52L481.44 79.52L450.08 22.56ZM629.92 20.64L629.92 30.08L591.2 30.08L591.2 120L581.76 120L581.76 30.08L581.76 20.64L591.2 20.64L629.92 20.64ZM525.12 12.16L525.12 2.71999L563.84 2.71999L573.28 2.71999L581.76 2.71999L591.2 2.71999L629.92 2.71999L629.92 12.16L591.2 12.16L581.76 12.16L573.28 12.16L573.28 20.64L573.28 30.08L573.28 120L563.84 120L563.84 30.08L525.12 30.08L525.12 20.64L563.84 20.64L563.84 12.16L525.12 12.16ZM656.96 10.24L711.84 110.08L706.4 119.84L670.08 53.76L647.84 13.92L641.12 2.56L652.8 2.56L656.96 10.24ZM760 2.56L770.24 2.56L759.68 22.88L722.56 90.56L717.76 99.04L712.32 89.28L670.24 14.08L670.4 14.08L668.32 10.56L664 2.56L674.88 2.56L679.2 10.56L682.08 15.84L682.24 15.84L687.52 25.28L692.16 33.6L697.44 43.2L701.6 50.56L701.6 50.88L706.08 58.56L706.4 59.36L715.52 43.2L720.64 33.6L729.92 16.96L735.52 6.72L737.92 2.56L748.8 2.56L739.36 19.2L738.24 21.28L719.2 56L711.84 68.96L717.76 79.52L728.48 60L749.12 22.56L751.36 18.24L760 2.56Z" />
    </g>
  </g>
  <g id="Status!" clip-path="url(#clip_3)" transform="translate(1470.0001 4)">
    <g fill="url(#gradient_1)" stroke="none" id="Status!">
      <path d="M31.3 98Q23 98 15.25 95.75Q7.5 93.5 2.8 89.9L8.3 77.7Q12.8 81 19 83Q25.2 85 31.4 85Q38.3 85 41.6 82.95Q44.9 80.9 44.9 77.5Q44.9 75 42.95 73.35Q41 71.7 37.95 70.7Q34.9 69.7 29.7 68.5Q21.7 66.6 16.6 64.7Q11.5 62.8 7.85 58.6Q4.2 54.4 4.2 47.4Q4.2 41.3 7.5 36.35Q10.8 31.4 17.45 28.5Q24.1 25.6 33.7 25.6Q40.4 25.6 46.8 27.2Q53.2 28.8 58 31.8L53 44.1Q43.3 38.6 33.6 38.6Q26.8 38.6 23.55 40.8Q20.3 43 20.3 46.6Q20.3 50.2 24.05 51.95Q27.8 53.7 35.5 55.4Q43.5 57.3 48.6 59.2Q53.7 61.1 57.35 65.2Q61 69.3 61 76.3Q61 82.3 57.65 87.25Q54.3 92.2 47.6 95.1Q40.9 98 31.3 98ZM105.7 94.2Q103.4 95.9 100.05 96.75Q96.7 97.6 93 97.6Q83.4 97.6 78.15 92.7Q72.9 87.8 72.9 78.3L72.9 56.2L64.6 56.2L64.6 44.2L72.9 44.2L72.9 31.1L88.5 31.1L88.5 44.2L101.9 44.2L101.9 56.2L88.5 56.2L88.5 78.1Q88.5 81.5 90.25 83.35Q92 85.2 95.2 85.2Q98.9 85.2 101.5 83.2L105.7 94.2ZM136.2 42.2Q148.7 42.2 155.4 48.15Q162.1 54.1 162.1 66.1L162.1 96.8L147.5 96.8L147.5 90.1Q143.1 97.6 131.1 97.6Q124.9 97.6 120.35 95.5Q115.8 93.4 113.4 89.7Q111 86 111 81.3Q111 73.8 116.65 69.5Q122.3 65.2 134.1 65.2L146.5 65.2Q146.5 60.1 143.4 57.35Q140.3 54.6 134.1 54.6Q129.8 54.6 125.65 55.95Q121.5 57.3 118.6 59.6L113 48.7Q117.4 45.6 123.55 43.9Q129.7 42.2 136.2 42.2ZM135 87.1Q139 87.1 142.1 85.25Q145.2 83.4 146.5 79.8L146.5 74.3L135.8 74.3Q126.2 74.3 126.2 80.6Q126.2 83.6 128.55 85.35Q130.9 87.1 135 87.1ZM210.9 94.2Q208.6 95.9 205.25 96.75Q201.9 97.6 198.2 97.6Q188.6 97.6 183.35 92.7Q178.1 87.8 178.1 78.3L178.1 56.2L169.8 56.2L169.8 44.2L178.1 44.2L178.1 31.1L193.7 31.1L193.7 44.2L207.1 44.2L207.1 56.2L193.7 56.2L193.7 78.1Q193.7 81.5 195.45 83.35Q197.2 85.2 200.4 85.2Q204.1 85.2 206.7 83.2L210.9 94.2ZM273.9 43L273.9 96.8L259.1 96.8L259.1 90.4Q256 93.9 251.7 95.75Q247.4 97.6 242.4 97.6Q231.8 97.6 225.6 91.5Q219.4 85.4 219.4 73.4L219.4 43L235 43L235 71.1Q235 84.1 245.9 84.1Q251.5 84.1 254.9 80.45Q258.3 76.8 258.3 69.6L258.3 43L273.9 43ZM306.5 97.6Q299.8 97.6 293.4 95.95Q287 94.3 283.2 91.8L288.4 80.6Q292 82.9 297.1 84.35Q302.2 85.8 307.1 85.8Q317 85.8 317 80.9Q317 78.6 314.3 77.6Q311.6 76.6 306 75.9Q299.4 74.9 295.1 73.6Q290.8 72.3 287.65 69Q284.5 65.7 284.5 59.6Q284.5 54.5 287.45 50.55Q290.4 46.6 296.05 44.4Q301.7 42.2 309.4 42.2Q315.1 42.2 320.75 43.45Q326.4 44.7 330.1 46.9L324.9 58Q317.8 54 309.4 54Q304.4 54 301.9 55.4Q299.4 56.8 299.4 59Q299.4 61.5 302.1 62.5Q304.8 63.5 310.7 64.4Q317.3 65.5 321.5 66.75Q325.7 68 328.8 71.3Q331.9 74.6 331.9 80.5Q331.9 85.5 328.9 89.4Q325.9 93.3 320.15 95.45Q314.4 97.6 306.5 97.6ZM339.5 26.8L358.1 26.8L355 72.5L342.6 72.5L339.5 26.8ZM348.8 97.6Q344.7 97.6 341.95 94.95Q339.2 92.3 339.2 88.5Q339.2 84.7 341.9 82.15Q344.6 79.6 348.8 79.6Q353 79.6 355.7 82.15Q358.4 84.7 358.4 88.5Q358.4 92.3 355.65 94.95Q352.9 97.6 348.8 97.6Z" />
    </g>
  </g>
</svg>